%
M48
M72
T01C0.02362
T02C0.03150
T03C0.03200
T04C0.04400
T05C0.07000
%
T01
X141800Y191800
T02
X201800Y146800
X211800Y136800
X176800Y136800
X166800Y121800
X171800Y91800
X176800Y81800
X71800Y76800
X71800Y66800
X71800Y56800
X71800Y46800
X71800Y86800
X71800Y96800
X71800Y106800
X71800Y116800
X71800Y126800
X71800Y136800
X71800Y146800
X71800Y156800
X71800Y166800
X71800Y176800
X71800Y186800
X11800Y186800
X11800Y176800
X11800Y166800
X11800Y156800
X11800Y146800
X11800Y136800
X11800Y126800
X11800Y116800
X11800Y106800
X11800Y96800
X11800Y86800
X11800Y76800
X11800Y66800
X11800Y56800
X11800Y46800
T03
X121800Y46800
X121800Y36800
X121800Y26800
X121800Y11800
X151800Y11800
X151800Y26800
X151800Y36800
X166800Y36800
X181800Y36800
X191800Y31800
X191800Y21800
X191800Y11800
X221800Y11800
X236800Y16800
X221800Y21800
X221800Y31800
X236800Y31800
X251800Y26800
X266800Y16800
X276800Y26800
X236800Y51800
X221800Y56800
X236800Y66800
X246800Y76800
X266800Y66800
X276800Y56800
X251800Y56800
X221800Y41800
X191800Y41800
X191800Y56800
X181800Y66800
X191800Y71800
X191800Y81800
X191800Y91800
X191800Y101800
X191800Y121800
X191800Y131800
X191800Y141800
X191800Y151800
X191800Y161800
X191800Y171800
X191800Y181800
X221800Y181800
X221800Y171800
X221800Y161800
X221800Y151800
X221800Y141800
X221800Y131800
X221800Y121800
X246800Y116800
X246800Y106800
X221800Y101800
X221800Y91800
X221800Y81800
X221800Y71800
X166800Y66800
X151800Y66800
X151800Y76800
X151800Y86800
X121800Y86800
X121800Y76800
X121800Y66800
X121800Y56800
X151800Y56800
X151800Y46800
X151800Y121800
X151800Y131800
X151800Y141800
X151800Y151800
X151800Y161800
X151800Y171800
X151800Y181800
X121800Y181800
X121800Y171800
X121800Y161800
X121800Y151800
X121800Y141800
X121800Y131800
X121800Y121800
X96800Y131800
X96800Y161800
X246800Y156800
X246800Y136800
X276800Y156800
T04
X156800Y106800
X116800Y106800
X96800Y106800
X96800Y66800
X96800Y56800
X96800Y16800
T05
X11800Y36800
X71800Y36800
X71800Y196800
X11800Y196800
M30
