G75*
%MOIN*%
%OFA0B0*%
%FSLAX25Y25*%
%IPPOS*%
%LPD*%
%AMOC8*
5,1,8,0,0,1.08239X$1,22.5*
%
%ADD10R,0.05150X0.05150*%
%ADD11C,0.05150*%
%ADD12OC8,0.06300*%
%ADD13C,0.06600*%
%ADD14C,0.05200*%
%ADD15OC8,0.05200*%
%ADD16R,0.04750X0.04750*%
%ADD17C,0.01600*%
%ADD18R,0.03962X0.03962*%
D10*
X0011800Y0186800D03*
D11*
X0011800Y0176800D03*
X0011800Y0166800D03*
X0011800Y0156800D03*
X0011800Y0146800D03*
X0011800Y0136800D03*
X0011800Y0126800D03*
X0011800Y0116800D03*
X0011800Y0106800D03*
X0011800Y0096800D03*
X0011800Y0086800D03*
X0011800Y0076800D03*
X0011800Y0066800D03*
X0011800Y0056800D03*
X0011800Y0046800D03*
X0071800Y0046800D03*
X0071800Y0056800D03*
X0071800Y0066800D03*
X0071800Y0076800D03*
X0071800Y0086800D03*
X0071800Y0096800D03*
X0071800Y0106800D03*
X0071800Y0116800D03*
X0071800Y0126800D03*
X0071800Y0136800D03*
X0071800Y0146800D03*
X0071800Y0156800D03*
X0071800Y0166800D03*
X0071800Y0176800D03*
X0071800Y0186800D03*
D12*
X0246800Y0136800D03*
X0246800Y0116800D03*
X0236800Y0051800D03*
X0236800Y0031800D03*
D13*
X0156800Y0106800D03*
X0116800Y0106800D03*
X0096800Y0106800D03*
X0096800Y0066800D03*
X0096800Y0056800D03*
X0096800Y0016800D03*
D14*
X0119200Y0026800D02*
X0124400Y0026800D01*
X0124400Y0036800D02*
X0119200Y0036800D01*
X0119200Y0046800D02*
X0124400Y0046800D01*
X0124400Y0056800D02*
X0119200Y0056800D01*
X0119200Y0066800D02*
X0124400Y0066800D01*
X0124400Y0076800D02*
X0119200Y0076800D01*
X0119200Y0086800D02*
X0124400Y0086800D01*
X0149200Y0086800D02*
X0154400Y0086800D01*
X0154400Y0076800D02*
X0149200Y0076800D01*
X0149200Y0066800D02*
X0154400Y0066800D01*
X0154400Y0056800D02*
X0149200Y0056800D01*
X0149200Y0046800D02*
X0154400Y0046800D01*
X0154400Y0036800D02*
X0149200Y0036800D01*
X0149200Y0026800D02*
X0154400Y0026800D01*
X0189200Y0021800D02*
X0194400Y0021800D01*
X0194400Y0011800D02*
X0189200Y0011800D01*
X0189200Y0031800D02*
X0194400Y0031800D01*
X0194400Y0041800D02*
X0189200Y0041800D01*
X0219200Y0041800D02*
X0224400Y0041800D01*
X0224400Y0031800D02*
X0219200Y0031800D01*
X0219200Y0021800D02*
X0224400Y0021800D01*
X0224400Y0011800D02*
X0219200Y0011800D01*
X0219200Y0071800D02*
X0224400Y0071800D01*
X0224400Y0081800D02*
X0219200Y0081800D01*
X0219200Y0091800D02*
X0224400Y0091800D01*
X0224400Y0101800D02*
X0219200Y0101800D01*
X0194400Y0101800D02*
X0189200Y0101800D01*
X0189200Y0091800D02*
X0194400Y0091800D01*
X0194400Y0081800D02*
X0189200Y0081800D01*
X0189200Y0071800D02*
X0194400Y0071800D01*
X0194400Y0121800D02*
X0189200Y0121800D01*
X0189200Y0131800D02*
X0194400Y0131800D01*
X0194400Y0141800D02*
X0189200Y0141800D01*
X0189200Y0151800D02*
X0194400Y0151800D01*
X0194400Y0161800D02*
X0189200Y0161800D01*
X0189200Y0171800D02*
X0194400Y0171800D01*
X0194400Y0181800D02*
X0189200Y0181800D01*
X0219200Y0181800D02*
X0224400Y0181800D01*
X0224400Y0171800D02*
X0219200Y0171800D01*
X0219200Y0161800D02*
X0224400Y0161800D01*
X0224400Y0151800D02*
X0219200Y0151800D01*
X0219200Y0141800D02*
X0224400Y0141800D01*
X0224400Y0131800D02*
X0219200Y0131800D01*
X0219200Y0121800D02*
X0224400Y0121800D01*
X0154400Y0121800D02*
X0149200Y0121800D01*
X0149200Y0131800D02*
X0154400Y0131800D01*
X0154400Y0141800D02*
X0149200Y0141800D01*
X0149200Y0151800D02*
X0154400Y0151800D01*
X0154400Y0161800D02*
X0149200Y0161800D01*
X0149200Y0171800D02*
X0154400Y0171800D01*
X0154400Y0181800D02*
X0149200Y0181800D01*
X0124400Y0181800D02*
X0119200Y0181800D01*
X0119200Y0171800D02*
X0124400Y0171800D01*
X0124400Y0161800D02*
X0119200Y0161800D01*
X0119200Y0151800D02*
X0124400Y0151800D01*
X0124400Y0141800D02*
X0119200Y0141800D01*
X0119200Y0131800D02*
X0124400Y0131800D01*
X0124400Y0121800D02*
X0119200Y0121800D01*
D15*
X0096800Y0131800D03*
X0096800Y0161800D03*
X0166800Y0066800D03*
X0181800Y0066800D03*
X0191800Y0056800D03*
X0181800Y0036800D03*
X0166800Y0036800D03*
X0151800Y0011800D03*
X0121800Y0011800D03*
X0221800Y0056800D03*
X0236800Y0066800D03*
X0246800Y0076800D03*
X0266800Y0066800D03*
X0276800Y0056800D03*
X0251800Y0056800D03*
X0251800Y0026800D03*
X0236800Y0016800D03*
X0266800Y0016800D03*
X0276800Y0026800D03*
X0246800Y0106800D03*
X0246800Y0156800D03*
X0276800Y0156800D03*
D16*
X0211800Y0136800D03*
X0201800Y0146800D03*
X0176800Y0136800D03*
X0166800Y0121800D03*
X0171800Y0091800D03*
X0176800Y0081800D03*
D17*
X0006600Y0030262D02*
X0006600Y0006600D01*
X0295701Y0006600D01*
X0295701Y0196961D01*
X0080100Y0196961D01*
X0080100Y0195149D01*
X0078836Y0192098D01*
X0076502Y0189764D01*
X0075256Y0189248D01*
X0075339Y0189165D01*
X0075975Y0187630D01*
X0075975Y0185970D01*
X0075339Y0184435D01*
X0074165Y0183261D01*
X0072630Y0182625D01*
X0070970Y0182625D01*
X0069435Y0183261D01*
X0068261Y0184435D01*
X0067625Y0185970D01*
X0067625Y0187630D01*
X0068261Y0189165D01*
X0068344Y0189248D01*
X0067098Y0189764D01*
X0064764Y0192098D01*
X0063500Y0195149D01*
X0063500Y0196961D01*
X0020100Y0196961D01*
X0020100Y0195149D01*
X0018836Y0192098D01*
X0016502Y0189764D01*
X0015975Y0189545D01*
X0015975Y0183562D01*
X0015038Y0182625D01*
X0008562Y0182625D01*
X0007625Y0183562D01*
X0007625Y0189545D01*
X0007098Y0189764D01*
X0006600Y0190262D01*
X0006600Y0043338D01*
X0007098Y0043836D01*
X0008344Y0044352D01*
X0008261Y0044435D01*
X0007625Y0045970D01*
X0007625Y0047630D01*
X0008261Y0049165D01*
X0009435Y0050339D01*
X0010970Y0050975D01*
X0012630Y0050975D01*
X0014165Y0050339D01*
X0015339Y0049165D01*
X0015975Y0047630D01*
X0015975Y0045970D01*
X0015339Y0044435D01*
X0015256Y0044352D01*
X0016502Y0043836D01*
X0018836Y0041502D01*
X0020100Y0038451D01*
X0020100Y0035149D01*
X0018836Y0032098D01*
X0016502Y0029764D01*
X0013451Y0028500D01*
X0010149Y0028500D01*
X0007098Y0029764D01*
X0006600Y0030262D01*
X0006600Y0028975D02*
X0009003Y0028975D01*
X0006600Y0027376D02*
X0112830Y0027376D01*
X0114428Y0025778D02*
X0006600Y0025778D01*
X0006600Y0024179D02*
X0115881Y0024179D01*
X0115639Y0024421D02*
X0116821Y0023239D01*
X0118365Y0022600D01*
X0125235Y0022600D01*
X0126779Y0023239D01*
X0127961Y0024421D01*
X0128600Y0025965D01*
X0128600Y0027635D01*
X0127961Y0029179D01*
X0126779Y0030361D01*
X0125235Y0031000D01*
X0118365Y0031000D01*
X0116821Y0030361D01*
X0116727Y0030267D01*
X0114200Y0032794D01*
X0114200Y0055806D01*
X0115000Y0056606D01*
X0115000Y0055965D01*
X0115639Y0054421D01*
X0116821Y0053239D01*
X0118365Y0052600D01*
X0125235Y0052600D01*
X0126779Y0053239D01*
X0127961Y0054421D01*
X0128600Y0055965D01*
X0128600Y0057635D01*
X0127961Y0059179D01*
X0126779Y0060361D01*
X0125235Y0061000D01*
X0119394Y0061000D01*
X0120994Y0062600D01*
X0125235Y0062600D01*
X0126779Y0063239D01*
X0127961Y0064421D01*
X0128600Y0065965D01*
X0128600Y0066606D01*
X0129400Y0065806D01*
X0129400Y0042794D01*
X0126873Y0040267D01*
X0126779Y0040361D01*
X0125235Y0041000D01*
X0118365Y0041000D01*
X0116821Y0040361D01*
X0115639Y0039179D01*
X0115000Y0037635D01*
X0115000Y0035965D01*
X0115639Y0034421D01*
X0116821Y0033239D01*
X0118365Y0032600D01*
X0125235Y0032600D01*
X0126779Y0033239D01*
X0127961Y0034421D01*
X0128092Y0034737D01*
X0128159Y0034765D01*
X0128835Y0035441D01*
X0133835Y0040441D01*
X0134200Y0041323D01*
X0134200Y0067277D01*
X0133835Y0068159D01*
X0133159Y0068835D01*
X0127767Y0074227D01*
X0127961Y0074421D01*
X0128600Y0075965D01*
X0128600Y0077635D01*
X0127961Y0079179D01*
X0126779Y0080361D01*
X0125235Y0081000D01*
X0118365Y0081000D01*
X0116821Y0080361D01*
X0115639Y0079179D01*
X0115000Y0077635D01*
X0115000Y0075965D01*
X0115639Y0074421D01*
X0116821Y0073239D01*
X0118365Y0072600D01*
X0122606Y0072600D01*
X0124206Y0071000D01*
X0118365Y0071000D01*
X0116821Y0070361D01*
X0115639Y0069179D01*
X0115000Y0067635D01*
X0115000Y0065965D01*
X0115639Y0064421D01*
X0115833Y0064227D01*
X0110441Y0058835D01*
X0109765Y0058159D01*
X0109400Y0057277D01*
X0109400Y0031323D01*
X0109765Y0030441D01*
X0114765Y0025441D01*
X0115441Y0024765D01*
X0115508Y0024737D01*
X0115639Y0024421D01*
X0116800Y0026800D02*
X0121800Y0026800D01*
X0116800Y0026800D02*
X0111800Y0031800D01*
X0111800Y0056800D01*
X0121800Y0066800D01*
X0120938Y0062543D02*
X0129400Y0062543D01*
X0129400Y0060945D02*
X0125368Y0060945D01*
X0127793Y0059346D02*
X0129400Y0059346D01*
X0129400Y0057748D02*
X0128553Y0057748D01*
X0128600Y0056149D02*
X0129400Y0056149D01*
X0129400Y0054551D02*
X0128014Y0054551D01*
X0129400Y0052952D02*
X0126086Y0052952D01*
X0125235Y0051000D02*
X0126779Y0050361D01*
X0127961Y0049179D01*
X0128600Y0047635D01*
X0128600Y0045965D01*
X0127961Y0044421D01*
X0126779Y0043239D01*
X0125235Y0042600D01*
X0118365Y0042600D01*
X0116821Y0043239D01*
X0115639Y0044421D01*
X0115000Y0045965D01*
X0115000Y0047635D01*
X0115639Y0049179D01*
X0116821Y0050361D01*
X0118365Y0051000D01*
X0125235Y0051000D01*
X0127384Y0049755D02*
X0129400Y0049755D01*
X0129400Y0048157D02*
X0128384Y0048157D01*
X0128600Y0046558D02*
X0129400Y0046558D01*
X0129400Y0044960D02*
X0128184Y0044960D01*
X0129400Y0043361D02*
X0126901Y0043361D01*
X0128369Y0041763D02*
X0114200Y0041763D01*
X0114200Y0043361D02*
X0116699Y0043361D01*
X0115416Y0044960D02*
X0114200Y0044960D01*
X0114200Y0046558D02*
X0115000Y0046558D01*
X0115216Y0048157D02*
X0114200Y0048157D01*
X0114200Y0049755D02*
X0116216Y0049755D01*
X0114200Y0051354D02*
X0129400Y0051354D01*
X0134200Y0051354D02*
X0231850Y0051354D01*
X0231850Y0051800D02*
X0231850Y0049750D01*
X0234750Y0046850D01*
X0236800Y0046850D01*
X0238850Y0046850D01*
X0241750Y0049750D01*
X0241750Y0051800D01*
X0241750Y0053850D01*
X0238850Y0056750D01*
X0236800Y0056750D01*
X0236800Y0051800D01*
X0236800Y0051800D01*
X0241750Y0051800D01*
X0236800Y0051800D01*
X0236800Y0051800D01*
X0236800Y0051800D01*
X0231850Y0051800D01*
X0231850Y0053850D01*
X0234750Y0056750D01*
X0236800Y0056750D01*
X0236800Y0051800D01*
X0236800Y0046850D01*
X0236800Y0051800D01*
X0236800Y0051800D01*
X0231850Y0051800D01*
X0231850Y0052952D02*
X0223892Y0052952D01*
X0223540Y0052600D02*
X0226000Y0055060D01*
X0226000Y0057606D01*
X0227794Y0059400D01*
X0248460Y0059400D01*
X0247600Y0058540D01*
X0247600Y0055060D01*
X0250060Y0052600D01*
X0253540Y0052600D01*
X0256000Y0055060D01*
X0256000Y0058540D01*
X0255140Y0059400D01*
X0256505Y0059400D01*
X0272600Y0055376D01*
X0272600Y0055060D01*
X0275060Y0052600D01*
X0278540Y0052600D01*
X0281000Y0055060D01*
X0281000Y0058540D01*
X0278540Y0061000D01*
X0275060Y0061000D01*
X0274027Y0059967D01*
X0257554Y0064085D01*
X0257277Y0064200D01*
X0257095Y0064200D01*
X0256919Y0064244D01*
X0256622Y0064200D01*
X0240140Y0064200D01*
X0241000Y0065060D01*
X0241000Y0068540D01*
X0238540Y0071000D01*
X0235060Y0071000D01*
X0232600Y0068540D01*
X0232600Y0065060D01*
X0233460Y0064200D01*
X0226323Y0064200D01*
X0225441Y0063835D01*
X0224765Y0063159D01*
X0222606Y0061000D01*
X0220060Y0061000D01*
X0217600Y0058540D01*
X0217600Y0055060D01*
X0220060Y0052600D01*
X0223540Y0052600D01*
X0225491Y0054551D02*
X0232551Y0054551D01*
X0234149Y0056149D02*
X0226000Y0056149D01*
X0226142Y0057748D02*
X0247600Y0057748D01*
X0247600Y0056149D02*
X0239451Y0056149D01*
X0241049Y0054551D02*
X0248109Y0054551D01*
X0249708Y0052952D02*
X0241750Y0052952D01*
X0241750Y0051354D02*
X0295701Y0051354D01*
X0295701Y0052952D02*
X0278892Y0052952D01*
X0280491Y0054551D02*
X0295701Y0054551D01*
X0295701Y0056149D02*
X0281000Y0056149D01*
X0281000Y0057748D02*
X0295701Y0057748D01*
X0295701Y0059346D02*
X0280193Y0059346D01*
X0278595Y0060945D02*
X0295701Y0060945D01*
X0295701Y0062543D02*
X0268766Y0062543D01*
X0268623Y0062400D02*
X0266800Y0062400D01*
X0266800Y0066800D01*
X0271200Y0066800D01*
X0271200Y0068623D01*
X0268623Y0071200D01*
X0266800Y0071200D01*
X0266800Y0066800D01*
X0266800Y0066800D01*
X0266800Y0066800D01*
X0271200Y0066800D01*
X0271200Y0064977D01*
X0268623Y0062400D01*
X0266800Y0062400D02*
X0266800Y0066800D01*
X0266800Y0066800D01*
X0266800Y0066800D01*
X0262400Y0066800D01*
X0262400Y0068623D01*
X0264977Y0071200D01*
X0266800Y0071200D01*
X0266800Y0066800D01*
X0262400Y0066800D01*
X0262400Y0064977D01*
X0264977Y0062400D01*
X0266800Y0062400D01*
X0266800Y0062543D02*
X0266800Y0062543D01*
X0266800Y0064142D02*
X0266800Y0064142D01*
X0266800Y0065740D02*
X0266800Y0065740D01*
X0266800Y0067339D02*
X0266800Y0067339D01*
X0266800Y0068937D02*
X0266800Y0068937D01*
X0266800Y0070536D02*
X0266800Y0070536D01*
X0269287Y0070536D02*
X0295701Y0070536D01*
X0295701Y0072134D02*
X0228600Y0072134D01*
X0228600Y0072635D02*
X0227961Y0074179D01*
X0226779Y0075361D01*
X0225235Y0076000D01*
X0218365Y0076000D01*
X0216821Y0075361D01*
X0215639Y0074179D01*
X0215000Y0072635D01*
X0215000Y0070965D01*
X0215639Y0069421D01*
X0216821Y0068239D01*
X0218365Y0067600D01*
X0225235Y0067600D01*
X0226779Y0068239D01*
X0227961Y0069421D01*
X0228600Y0070965D01*
X0228600Y0072635D01*
X0228145Y0073733D02*
X0243927Y0073733D01*
X0245060Y0072600D02*
X0242600Y0075060D01*
X0242600Y0078540D01*
X0245060Y0081000D01*
X0248540Y0081000D01*
X0251000Y0078540D01*
X0251000Y0075060D01*
X0248540Y0072600D01*
X0245060Y0072600D01*
X0240602Y0068937D02*
X0262715Y0068937D01*
X0262400Y0067339D02*
X0241000Y0067339D01*
X0241000Y0065740D02*
X0262400Y0065740D01*
X0263236Y0064142D02*
X0257418Y0064142D01*
X0256800Y0061800D02*
X0276800Y0056800D01*
X0273109Y0054551D02*
X0255491Y0054551D01*
X0256000Y0056149D02*
X0269507Y0056149D01*
X0274708Y0052952D02*
X0253892Y0052952D01*
X0256000Y0057748D02*
X0263113Y0057748D01*
X0256719Y0059346D02*
X0255193Y0059346D01*
X0256800Y0061800D02*
X0226800Y0061800D01*
X0221800Y0056800D01*
X0218407Y0059346D02*
X0195193Y0059346D01*
X0196000Y0058540D02*
X0193540Y0061000D01*
X0190060Y0061000D01*
X0187600Y0058540D01*
X0187600Y0055060D01*
X0190060Y0052600D01*
X0193540Y0052600D01*
X0196000Y0055060D01*
X0196000Y0058540D01*
X0196000Y0057748D02*
X0217600Y0057748D01*
X0217600Y0056149D02*
X0196000Y0056149D01*
X0195491Y0054551D02*
X0218109Y0054551D01*
X0219708Y0052952D02*
X0193892Y0052952D01*
X0189708Y0052952D02*
X0156086Y0052952D01*
X0156779Y0053239D02*
X0157940Y0054400D01*
X0177277Y0054400D01*
X0178159Y0054765D01*
X0178835Y0055441D01*
X0179200Y0056323D01*
X0179200Y0063460D01*
X0180060Y0062600D01*
X0183540Y0062600D01*
X0186000Y0065060D01*
X0186000Y0068540D01*
X0183540Y0071000D01*
X0180060Y0071000D01*
X0179200Y0070140D01*
X0179200Y0077825D01*
X0179838Y0077825D01*
X0180775Y0078762D01*
X0180775Y0084838D01*
X0179838Y0085775D01*
X0173762Y0085775D01*
X0172825Y0084838D01*
X0172825Y0078762D01*
X0173762Y0077825D01*
X0174400Y0077825D01*
X0174400Y0059200D01*
X0157940Y0059200D01*
X0156779Y0060361D01*
X0155235Y0061000D01*
X0148365Y0061000D01*
X0146821Y0060361D01*
X0145639Y0059179D01*
X0145000Y0057635D01*
X0145000Y0055965D01*
X0145639Y0054421D01*
X0146821Y0053239D01*
X0148365Y0052600D01*
X0155235Y0052600D01*
X0156779Y0053239D01*
X0156089Y0050878D02*
X0155430Y0051092D01*
X0154746Y0051200D01*
X0151800Y0051200D01*
X0151800Y0046800D01*
X0151800Y0046800D01*
X0158800Y0046800D01*
X0158800Y0047146D01*
X0158692Y0047830D01*
X0158478Y0048489D01*
X0158163Y0049106D01*
X0157756Y0049666D01*
X0157266Y0050156D01*
X0156706Y0050563D01*
X0156089Y0050878D01*
X0157667Y0049755D02*
X0231850Y0049755D01*
X0233443Y0048157D02*
X0158586Y0048157D01*
X0158800Y0046800D02*
X0151800Y0046800D01*
X0151800Y0046800D01*
X0151800Y0042400D01*
X0154746Y0042400D01*
X0155430Y0042508D01*
X0156089Y0042722D01*
X0156706Y0043037D01*
X0157266Y0043444D01*
X0157756Y0043934D01*
X0158163Y0044494D01*
X0158478Y0045111D01*
X0158692Y0045770D01*
X0158800Y0046454D01*
X0158800Y0046800D01*
X0158800Y0046558D02*
X0295701Y0046558D01*
X0295701Y0044960D02*
X0227180Y0044960D01*
X0226779Y0045361D02*
X0225235Y0046000D01*
X0218365Y0046000D01*
X0216821Y0045361D01*
X0215639Y0044179D01*
X0215000Y0042635D01*
X0215000Y0040965D01*
X0215639Y0039421D01*
X0216821Y0038239D01*
X0218365Y0037600D01*
X0222606Y0037600D01*
X0224206Y0036000D01*
X0218365Y0036000D01*
X0216821Y0035361D01*
X0215639Y0034179D01*
X0215000Y0032635D01*
X0215000Y0030965D01*
X0215639Y0029421D01*
X0216821Y0028239D01*
X0218365Y0027600D01*
X0225235Y0027600D01*
X0226779Y0028239D01*
X0227961Y0029421D01*
X0228600Y0030965D01*
X0228600Y0031606D01*
X0230441Y0029765D01*
X0231323Y0029400D01*
X0232482Y0029400D01*
X0234832Y0027050D01*
X0238768Y0027050D01*
X0241118Y0029400D01*
X0248460Y0029400D01*
X0247600Y0028540D01*
X0247600Y0025060D01*
X0250060Y0022600D01*
X0253540Y0022600D01*
X0256000Y0025060D01*
X0256000Y0028540D01*
X0255140Y0029400D01*
X0255806Y0029400D01*
X0260441Y0024765D01*
X0261323Y0024400D01*
X0273260Y0024400D01*
X0275060Y0022600D01*
X0278540Y0022600D01*
X0281000Y0025060D01*
X0281000Y0028540D01*
X0278540Y0031000D01*
X0275060Y0031000D01*
X0273260Y0029200D01*
X0262794Y0029200D01*
X0258835Y0033159D01*
X0258159Y0033835D01*
X0257277Y0034200D01*
X0241118Y0034200D01*
X0238768Y0036550D01*
X0234832Y0036550D01*
X0232638Y0034356D01*
X0227767Y0039227D01*
X0227961Y0039421D01*
X0228600Y0040965D01*
X0228600Y0042635D01*
X0227961Y0044179D01*
X0226779Y0045361D01*
X0228299Y0043361D02*
X0295701Y0043361D01*
X0295701Y0041763D02*
X0228600Y0041763D01*
X0228268Y0040164D02*
X0295701Y0040164D01*
X0295701Y0038566D02*
X0228428Y0038566D01*
X0230027Y0036967D02*
X0295701Y0036967D01*
X0295701Y0035369D02*
X0239949Y0035369D01*
X0236800Y0031800D02*
X0231800Y0031800D01*
X0221800Y0041800D01*
X0216495Y0038566D02*
X0197388Y0038566D01*
X0197266Y0038444D02*
X0197756Y0038934D01*
X0198163Y0039494D01*
X0198478Y0040111D01*
X0198692Y0040770D01*
X0198800Y0041454D01*
X0198800Y0041800D01*
X0198800Y0042146D01*
X0198692Y0042830D01*
X0198478Y0043489D01*
X0198163Y0044106D01*
X0197756Y0044666D01*
X0197266Y0045156D01*
X0196706Y0045563D01*
X0196089Y0045878D01*
X0195430Y0046092D01*
X0194746Y0046200D01*
X0191800Y0046200D01*
X0191800Y0041800D01*
X0191800Y0041800D01*
X0198800Y0041800D01*
X0191800Y0041800D01*
X0191800Y0041800D01*
X0191800Y0037400D01*
X0194746Y0037400D01*
X0195430Y0037508D01*
X0196089Y0037722D01*
X0196706Y0038037D01*
X0197266Y0038444D01*
X0198495Y0040164D02*
X0215331Y0040164D01*
X0215000Y0041763D02*
X0198800Y0041763D01*
X0198519Y0043361D02*
X0215301Y0043361D01*
X0216420Y0044960D02*
X0197463Y0044960D01*
X0191800Y0044960D02*
X0191800Y0044960D01*
X0191800Y0046200D02*
X0188854Y0046200D01*
X0188170Y0046092D01*
X0187511Y0045878D01*
X0186894Y0045563D01*
X0186334Y0045156D01*
X0185844Y0044666D01*
X0185437Y0044106D01*
X0185122Y0043489D01*
X0184908Y0042830D01*
X0184800Y0042146D01*
X0184800Y0041800D01*
X0191800Y0041800D01*
X0191800Y0041800D01*
X0191800Y0041800D01*
X0191800Y0046200D01*
X0191800Y0043361D02*
X0191800Y0043361D01*
X0191800Y0041800D02*
X0184800Y0041800D01*
X0184800Y0041454D01*
X0184908Y0040770D01*
X0185122Y0040111D01*
X0185437Y0039494D01*
X0185844Y0038934D01*
X0186334Y0038444D01*
X0186894Y0038037D01*
X0187511Y0037722D01*
X0188170Y0037508D01*
X0188854Y0037400D01*
X0191800Y0037400D01*
X0191800Y0041800D01*
X0191800Y0041763D02*
X0191800Y0041763D01*
X0191800Y0040164D02*
X0191800Y0040164D01*
X0191800Y0038566D02*
X0191800Y0038566D01*
X0195235Y0036000D02*
X0188365Y0036000D01*
X0186821Y0035361D01*
X0185639Y0034179D01*
X0185000Y0032635D01*
X0185000Y0030965D01*
X0185639Y0029421D01*
X0186821Y0028239D01*
X0188365Y0027600D01*
X0195235Y0027600D01*
X0196779Y0028239D01*
X0197961Y0029421D01*
X0198600Y0030965D01*
X0198600Y0032635D01*
X0197961Y0034179D01*
X0196779Y0035361D01*
X0195235Y0036000D01*
X0196759Y0035369D02*
X0216841Y0035369D01*
X0215470Y0033770D02*
X0198130Y0033770D01*
X0198600Y0032172D02*
X0215000Y0032172D01*
X0215162Y0030573D02*
X0198438Y0030573D01*
X0197514Y0028975D02*
X0216086Y0028975D01*
X0217828Y0025778D02*
X0195772Y0025778D01*
X0195235Y0026000D02*
X0196779Y0025361D01*
X0197961Y0024179D01*
X0198600Y0022635D01*
X0198600Y0020965D01*
X0197961Y0019421D01*
X0196779Y0018239D01*
X0195235Y0017600D01*
X0188365Y0017600D01*
X0186821Y0018239D01*
X0185639Y0019421D01*
X0185000Y0020965D01*
X0185000Y0022635D01*
X0185639Y0024179D01*
X0186821Y0025361D01*
X0188365Y0026000D01*
X0195235Y0026000D01*
X0197961Y0024179D02*
X0215639Y0024179D01*
X0215000Y0022635D01*
X0215000Y0020965D01*
X0215639Y0019421D01*
X0216821Y0018239D01*
X0218365Y0017600D01*
X0225235Y0017600D01*
X0226779Y0018239D01*
X0227961Y0019421D01*
X0228600Y0020965D01*
X0228600Y0022635D01*
X0227961Y0024179D01*
X0226779Y0025361D01*
X0225235Y0026000D01*
X0218365Y0026000D01*
X0216821Y0025361D01*
X0215639Y0024179D01*
X0215000Y0022581D02*
X0198600Y0022581D01*
X0198600Y0020982D02*
X0215000Y0020982D01*
X0215677Y0019384D02*
X0197923Y0019384D01*
X0195682Y0017785D02*
X0217918Y0017785D01*
X0218365Y0016000D02*
X0216821Y0015361D01*
X0215639Y0014179D01*
X0215000Y0012635D01*
X0215000Y0010965D01*
X0215639Y0009421D01*
X0216821Y0008239D01*
X0218365Y0007600D01*
X0225235Y0007600D01*
X0226779Y0008239D01*
X0227961Y0009421D01*
X0228600Y0010965D01*
X0228600Y0012635D01*
X0227961Y0014179D01*
X0226779Y0015361D01*
X0225235Y0016000D01*
X0218365Y0016000D01*
X0216048Y0014588D02*
X0197813Y0014588D01*
X0197756Y0014666D02*
X0197266Y0015156D01*
X0196706Y0015563D01*
X0196089Y0015878D01*
X0195430Y0016092D01*
X0194746Y0016200D01*
X0191800Y0016200D01*
X0191800Y0011800D01*
X0191800Y0011800D01*
X0198800Y0011800D01*
X0198800Y0012146D01*
X0198692Y0012830D01*
X0198478Y0013489D01*
X0198163Y0014106D01*
X0197756Y0014666D01*
X0198640Y0012990D02*
X0215147Y0012990D01*
X0215000Y0011391D02*
X0198790Y0011391D01*
X0198800Y0011454D02*
X0198692Y0010770D01*
X0198478Y0010111D01*
X0198163Y0009494D01*
X0197756Y0008934D01*
X0197266Y0008444D01*
X0196706Y0008037D01*
X0196089Y0007722D01*
X0195430Y0007508D01*
X0194746Y0007400D01*
X0191800Y0007400D01*
X0191800Y0011800D01*
X0191800Y0011800D01*
X0191800Y0011800D01*
X0191800Y0011800D01*
X0184800Y0011800D01*
X0184800Y0012146D01*
X0184908Y0012830D01*
X0185122Y0013489D01*
X0185437Y0014106D01*
X0185844Y0014666D01*
X0186334Y0015156D01*
X0186894Y0015563D01*
X0187511Y0015878D01*
X0188170Y0016092D01*
X0188854Y0016200D01*
X0191800Y0016200D01*
X0191800Y0011800D01*
X0198800Y0011800D01*
X0198800Y0011454D01*
X0198315Y0009793D02*
X0215485Y0009793D01*
X0216930Y0008194D02*
X0196923Y0008194D01*
X0191800Y0008194D02*
X0191800Y0008194D01*
X0191800Y0007400D02*
X0191800Y0011800D01*
X0184800Y0011800D01*
X0184800Y0011454D01*
X0184908Y0010770D01*
X0185122Y0010111D01*
X0185437Y0009494D01*
X0185844Y0008934D01*
X0186334Y0008444D01*
X0186894Y0008037D01*
X0187511Y0007722D01*
X0188170Y0007508D01*
X0188854Y0007400D01*
X0191800Y0007400D01*
X0191800Y0009793D02*
X0191800Y0009793D01*
X0191800Y0011391D02*
X0191800Y0011391D01*
X0191800Y0012990D02*
X0191800Y0012990D01*
X0191800Y0014588D02*
X0191800Y0014588D01*
X0191800Y0016187D02*
X0191800Y0016187D01*
X0188769Y0016187D02*
X0153636Y0016187D01*
X0153623Y0016200D02*
X0151800Y0016200D01*
X0151800Y0011800D01*
X0156200Y0011800D01*
X0156200Y0013623D01*
X0153623Y0016200D01*
X0151800Y0016187D02*
X0151800Y0016187D01*
X0151800Y0016200D02*
X0149977Y0016200D01*
X0147400Y0013623D01*
X0147400Y0011800D01*
X0151800Y0011800D01*
X0151800Y0011800D01*
X0151800Y0011800D01*
X0156200Y0011800D01*
X0156200Y0009977D01*
X0153623Y0007400D01*
X0151800Y0007400D01*
X0151800Y0011800D01*
X0151800Y0011800D01*
X0151800Y0011800D01*
X0151800Y0016200D01*
X0151800Y0014588D02*
X0151800Y0014588D01*
X0151800Y0012990D02*
X0151800Y0012990D01*
X0151800Y0011800D02*
X0147400Y0011800D01*
X0147400Y0009977D01*
X0149977Y0007400D01*
X0151800Y0007400D01*
X0151800Y0011800D01*
X0151800Y0011391D02*
X0151800Y0011391D01*
X0151800Y0009793D02*
X0151800Y0009793D01*
X0151800Y0008194D02*
X0151800Y0008194D01*
X0154417Y0008194D02*
X0186677Y0008194D01*
X0185285Y0009793D02*
X0156015Y0009793D01*
X0156200Y0011391D02*
X0184810Y0011391D01*
X0184960Y0012990D02*
X0156200Y0012990D01*
X0155234Y0014588D02*
X0185787Y0014588D01*
X0187918Y0017785D02*
X0101808Y0017785D01*
X0101774Y0017994D02*
X0101526Y0018758D01*
X0101162Y0019473D01*
X0100690Y0020122D01*
X0100122Y0020690D01*
X0099473Y0021162D01*
X0098758Y0021526D01*
X0097994Y0021774D01*
X0097201Y0021900D01*
X0097100Y0021900D01*
X0097100Y0017100D01*
X0096500Y0017100D01*
X0096500Y0021900D01*
X0096399Y0021900D01*
X0095606Y0021774D01*
X0094842Y0021526D01*
X0094127Y0021162D01*
X0093478Y0020690D01*
X0092910Y0020122D01*
X0092438Y0019473D01*
X0092074Y0018758D01*
X0091826Y0017994D01*
X0091700Y0017201D01*
X0091700Y0017100D01*
X0096500Y0017100D01*
X0096500Y0016500D01*
X0091700Y0016500D01*
X0091700Y0016399D01*
X0091826Y0015606D01*
X0092074Y0014842D01*
X0092438Y0014127D01*
X0092910Y0013478D01*
X0093478Y0012910D01*
X0094127Y0012438D01*
X0094842Y0012074D01*
X0095606Y0011826D01*
X0096399Y0011700D01*
X0096500Y0011700D01*
X0096500Y0016500D01*
X0097100Y0016500D01*
X0097100Y0017100D01*
X0101900Y0017100D01*
X0101900Y0017201D01*
X0101774Y0017994D01*
X0101900Y0016500D02*
X0097100Y0016500D01*
X0097100Y0011700D01*
X0097201Y0011700D01*
X0097994Y0011826D01*
X0098758Y0012074D01*
X0099473Y0012438D01*
X0100122Y0012910D01*
X0100690Y0013478D01*
X0101162Y0014127D01*
X0101526Y0014842D01*
X0101774Y0015606D01*
X0101900Y0016399D01*
X0101900Y0016500D01*
X0101866Y0016187D02*
X0149964Y0016187D01*
X0148366Y0014588D02*
X0124952Y0014588D01*
X0126000Y0013540D02*
X0123540Y0016000D01*
X0120060Y0016000D01*
X0117600Y0013540D01*
X0117600Y0010060D01*
X0120060Y0007600D01*
X0123540Y0007600D01*
X0126000Y0010060D01*
X0126000Y0013540D01*
X0126000Y0012990D02*
X0147400Y0012990D01*
X0147400Y0011391D02*
X0126000Y0011391D01*
X0125732Y0009793D02*
X0147585Y0009793D01*
X0149183Y0008194D02*
X0124134Y0008194D01*
X0119466Y0008194D02*
X0006600Y0008194D01*
X0006600Y0009793D02*
X0117868Y0009793D01*
X0117600Y0011391D02*
X0006600Y0011391D01*
X0006600Y0012990D02*
X0093398Y0012990D01*
X0092203Y0014588D02*
X0006600Y0014588D01*
X0006600Y0016187D02*
X0091734Y0016187D01*
X0091792Y0017785D02*
X0006600Y0017785D01*
X0006600Y0019384D02*
X0092393Y0019384D01*
X0093880Y0020982D02*
X0006600Y0020982D01*
X0006600Y0022581D02*
X0185000Y0022581D01*
X0185000Y0020982D02*
X0099720Y0020982D01*
X0101207Y0019384D02*
X0185677Y0019384D01*
X0185639Y0024179D02*
X0157719Y0024179D01*
X0157961Y0024421D02*
X0156779Y0023239D01*
X0155235Y0022600D01*
X0148365Y0022600D01*
X0146821Y0023239D01*
X0145639Y0024421D01*
X0145000Y0025965D01*
X0145000Y0027635D01*
X0145639Y0029179D01*
X0146821Y0030361D01*
X0148365Y0031000D01*
X0155235Y0031000D01*
X0156779Y0030361D01*
X0157961Y0029179D01*
X0158600Y0027635D01*
X0158600Y0025965D01*
X0157961Y0024421D01*
X0158523Y0025778D02*
X0187828Y0025778D01*
X0186086Y0028975D02*
X0158045Y0028975D01*
X0158600Y0027376D02*
X0234506Y0027376D01*
X0232908Y0028975D02*
X0227514Y0028975D01*
X0228438Y0030573D02*
X0229633Y0030573D01*
X0225772Y0025778D02*
X0247600Y0025778D01*
X0247600Y0027376D02*
X0239094Y0027376D01*
X0240692Y0028975D02*
X0248035Y0028975D01*
X0248481Y0024179D02*
X0227961Y0024179D01*
X0228600Y0022581D02*
X0295701Y0022581D01*
X0295701Y0024179D02*
X0280119Y0024179D01*
X0281000Y0025778D02*
X0295701Y0025778D01*
X0295701Y0027376D02*
X0281000Y0027376D01*
X0280565Y0028975D02*
X0295701Y0028975D01*
X0295701Y0030573D02*
X0278966Y0030573D01*
X0274634Y0030573D02*
X0261421Y0030573D01*
X0259822Y0032172D02*
X0295701Y0032172D01*
X0295701Y0033770D02*
X0258224Y0033770D01*
X0256800Y0031800D02*
X0236800Y0031800D01*
X0233651Y0035369D02*
X0231625Y0035369D01*
X0223239Y0036967D02*
X0186000Y0036967D01*
X0186000Y0038540D02*
X0186000Y0035060D01*
X0183540Y0032600D01*
X0180060Y0032600D01*
X0177600Y0035060D01*
X0177600Y0038540D01*
X0180060Y0041000D01*
X0183540Y0041000D01*
X0186000Y0038540D01*
X0185974Y0038566D02*
X0186212Y0038566D01*
X0185105Y0040164D02*
X0184375Y0040164D01*
X0184800Y0041763D02*
X0134200Y0041763D01*
X0134200Y0043361D02*
X0146447Y0043361D01*
X0146334Y0043444D02*
X0146894Y0043037D01*
X0147511Y0042722D01*
X0148170Y0042508D01*
X0148854Y0042400D01*
X0151800Y0042400D01*
X0151800Y0046800D01*
X0151800Y0046800D01*
X0151800Y0046800D01*
X0144800Y0046800D01*
X0144800Y0047146D01*
X0144908Y0047830D01*
X0145122Y0048489D01*
X0145437Y0049106D01*
X0145844Y0049666D01*
X0146334Y0050156D01*
X0146894Y0050563D01*
X0147511Y0050878D01*
X0148170Y0051092D01*
X0148854Y0051200D01*
X0151800Y0051200D01*
X0151800Y0046800D01*
X0144800Y0046800D01*
X0144800Y0046454D01*
X0144908Y0045770D01*
X0145122Y0045111D01*
X0145437Y0044494D01*
X0145844Y0043934D01*
X0146334Y0043444D01*
X0145199Y0044960D02*
X0134200Y0044960D01*
X0134200Y0046558D02*
X0144800Y0046558D01*
X0145014Y0048157D02*
X0134200Y0048157D01*
X0134200Y0049755D02*
X0145933Y0049755D01*
X0151800Y0049755D02*
X0151800Y0049755D01*
X0151800Y0048157D02*
X0151800Y0048157D01*
X0151800Y0046558D02*
X0151800Y0046558D01*
X0151800Y0044960D02*
X0151800Y0044960D01*
X0151800Y0043361D02*
X0151800Y0043361D01*
X0155235Y0041000D02*
X0156779Y0040361D01*
X0157961Y0039179D01*
X0158600Y0037635D01*
X0158600Y0035965D01*
X0157961Y0034421D01*
X0156779Y0033239D01*
X0155235Y0032600D01*
X0148365Y0032600D01*
X0146821Y0033239D01*
X0145639Y0034421D01*
X0145000Y0035965D01*
X0145000Y0037635D01*
X0145639Y0039179D01*
X0146821Y0040361D01*
X0148365Y0041000D01*
X0155235Y0041000D01*
X0156975Y0040164D02*
X0164225Y0040164D01*
X0165060Y0041000D02*
X0162600Y0038540D01*
X0162600Y0035060D01*
X0165060Y0032600D01*
X0168540Y0032600D01*
X0171000Y0035060D01*
X0171000Y0038540D01*
X0168540Y0041000D01*
X0165060Y0041000D01*
X0162626Y0038566D02*
X0158215Y0038566D01*
X0158600Y0036967D02*
X0162600Y0036967D01*
X0162600Y0035369D02*
X0158353Y0035369D01*
X0157310Y0033770D02*
X0163890Y0033770D01*
X0169710Y0033770D02*
X0178890Y0033770D01*
X0177600Y0035369D02*
X0171000Y0035369D01*
X0171000Y0036967D02*
X0177600Y0036967D01*
X0177626Y0038566D02*
X0170974Y0038566D01*
X0169375Y0040164D02*
X0179225Y0040164D01*
X0185081Y0043361D02*
X0157153Y0043361D01*
X0158401Y0044960D02*
X0186137Y0044960D01*
X0186000Y0035369D02*
X0186841Y0035369D01*
X0185470Y0033770D02*
X0184710Y0033770D01*
X0185000Y0032172D02*
X0114822Y0032172D01*
X0114200Y0033770D02*
X0116290Y0033770D01*
X0115247Y0035369D02*
X0114200Y0035369D01*
X0114200Y0036967D02*
X0115000Y0036967D01*
X0115385Y0038566D02*
X0114200Y0038566D01*
X0114200Y0040164D02*
X0116625Y0040164D01*
X0121800Y0036800D02*
X0126800Y0036800D01*
X0131800Y0041800D01*
X0131800Y0066800D01*
X0121800Y0076800D01*
X0123071Y0072134D02*
X0006600Y0072134D01*
X0006600Y0070536D02*
X0009910Y0070536D01*
X0009435Y0070339D02*
X0008261Y0069165D01*
X0007625Y0067630D01*
X0007625Y0065970D01*
X0008261Y0064435D01*
X0009435Y0063261D01*
X0010970Y0062625D01*
X0012630Y0062625D01*
X0014165Y0063261D01*
X0015339Y0064435D01*
X0015975Y0065970D01*
X0015975Y0067630D01*
X0015339Y0069165D01*
X0014165Y0070339D01*
X0012630Y0070975D01*
X0010970Y0070975D01*
X0009435Y0070339D01*
X0008167Y0068937D02*
X0006600Y0068937D01*
X0006600Y0067339D02*
X0007625Y0067339D01*
X0007720Y0065740D02*
X0006600Y0065740D01*
X0006600Y0064142D02*
X0008554Y0064142D01*
X0006600Y0062543D02*
X0094272Y0062543D01*
X0094024Y0062646D02*
X0095825Y0061900D01*
X0097775Y0061900D01*
X0099576Y0062646D01*
X0100954Y0064024D01*
X0101700Y0065825D01*
X0101700Y0067775D01*
X0100954Y0069576D01*
X0099576Y0070954D01*
X0097775Y0071700D01*
X0095825Y0071700D01*
X0094024Y0070954D01*
X0092646Y0069576D01*
X0091900Y0067775D01*
X0091900Y0065825D01*
X0092646Y0064024D01*
X0094024Y0062646D01*
X0094024Y0060954D02*
X0092646Y0059576D01*
X0091900Y0057775D01*
X0091900Y0055825D01*
X0092646Y0054024D01*
X0094024Y0052646D01*
X0095825Y0051900D01*
X0097775Y0051900D01*
X0099576Y0052646D01*
X0100954Y0054024D01*
X0101700Y0055825D01*
X0101700Y0057775D01*
X0100954Y0059576D01*
X0099576Y0060954D01*
X0097775Y0061700D01*
X0095825Y0061700D01*
X0094024Y0060954D01*
X0094015Y0060945D02*
X0072703Y0060945D01*
X0072630Y0060975D02*
X0070970Y0060975D01*
X0069435Y0060339D01*
X0068261Y0059165D01*
X0067625Y0057630D01*
X0067625Y0055970D01*
X0068261Y0054435D01*
X0069435Y0053261D01*
X0070970Y0052625D01*
X0072630Y0052625D01*
X0074165Y0053261D01*
X0075339Y0054435D01*
X0075975Y0055970D01*
X0075975Y0057630D01*
X0075339Y0059165D01*
X0074165Y0060339D01*
X0072630Y0060975D01*
X0072630Y0062625D02*
X0074165Y0063261D01*
X0075339Y0064435D01*
X0075975Y0065970D01*
X0075975Y0067630D01*
X0075339Y0069165D01*
X0074165Y0070339D01*
X0072630Y0070975D01*
X0070970Y0070975D01*
X0069435Y0070339D01*
X0068261Y0069165D01*
X0067625Y0067630D01*
X0067625Y0065970D01*
X0068261Y0064435D01*
X0069435Y0063261D01*
X0070970Y0062625D01*
X0072630Y0062625D01*
X0070897Y0060945D02*
X0013200Y0060945D01*
X0013479Y0060854D02*
X0012824Y0061067D01*
X0012144Y0061175D01*
X0011800Y0061175D01*
X0011456Y0061175D01*
X0010776Y0061067D01*
X0010121Y0060854D01*
X0009507Y0060542D01*
X0008950Y0060137D01*
X0008463Y0059650D01*
X0008058Y0059093D01*
X0007746Y0058479D01*
X0007533Y0057824D01*
X0007425Y0057144D01*
X0007425Y0056800D01*
X0011800Y0056800D01*
X0011800Y0056800D01*
X0011800Y0061175D01*
X0011800Y0056800D01*
X0016175Y0056800D01*
X0016175Y0057144D01*
X0016067Y0057824D01*
X0015854Y0058479D01*
X0015542Y0059093D01*
X0015137Y0059650D01*
X0014650Y0060137D01*
X0014093Y0060542D01*
X0013479Y0060854D01*
X0011800Y0060945D02*
X0011800Y0060945D01*
X0010400Y0060945D02*
X0006600Y0060945D01*
X0006600Y0059346D02*
X0008243Y0059346D01*
X0007521Y0057748D02*
X0006600Y0057748D01*
X0007425Y0056800D02*
X0007425Y0056456D01*
X0007533Y0055776D01*
X0007746Y0055121D01*
X0008058Y0054507D01*
X0008463Y0053950D01*
X0008950Y0053463D01*
X0009507Y0053058D01*
X0010121Y0052746D01*
X0010776Y0052533D01*
X0011456Y0052425D01*
X0011800Y0052425D01*
X0012144Y0052425D01*
X0012824Y0052533D01*
X0013479Y0052746D01*
X0014093Y0053058D01*
X0014650Y0053463D01*
X0015137Y0053950D01*
X0015542Y0054507D01*
X0015854Y0055121D01*
X0016067Y0055776D01*
X0016175Y0056456D01*
X0016175Y0056800D01*
X0011800Y0056800D01*
X0011800Y0056800D01*
X0011800Y0056800D01*
X0011800Y0052425D01*
X0011800Y0056800D01*
X0011800Y0056800D01*
X0007425Y0056800D01*
X0007474Y0056149D02*
X0006600Y0056149D01*
X0006600Y0054551D02*
X0008036Y0054551D01*
X0006600Y0052952D02*
X0009715Y0052952D01*
X0011800Y0052952D02*
X0011800Y0052952D01*
X0011800Y0054551D02*
X0011800Y0054551D01*
X0011800Y0056149D02*
X0011800Y0056149D01*
X0011800Y0057748D02*
X0011800Y0057748D01*
X0011800Y0059346D02*
X0011800Y0059346D01*
X0015357Y0059346D02*
X0068442Y0059346D01*
X0067674Y0057748D02*
X0016079Y0057748D01*
X0016126Y0056149D02*
X0067625Y0056149D01*
X0068213Y0054551D02*
X0015564Y0054551D01*
X0013885Y0052952D02*
X0070180Y0052952D01*
X0070970Y0050975D02*
X0069435Y0050339D01*
X0068261Y0049165D01*
X0067625Y0047630D01*
X0067625Y0045970D01*
X0068261Y0044435D01*
X0068344Y0044352D01*
X0067098Y0043836D01*
X0064764Y0041502D01*
X0063500Y0038451D01*
X0063500Y0035149D01*
X0064764Y0032098D01*
X0067098Y0029764D01*
X0070149Y0028500D01*
X0073451Y0028500D01*
X0076502Y0029764D01*
X0078836Y0032098D01*
X0080100Y0035149D01*
X0080100Y0038451D01*
X0078836Y0041502D01*
X0076502Y0043836D01*
X0075256Y0044352D01*
X0075339Y0044435D01*
X0075975Y0045970D01*
X0075975Y0047630D01*
X0075339Y0049165D01*
X0074165Y0050339D01*
X0072630Y0050975D01*
X0070970Y0050975D01*
X0068851Y0049755D02*
X0014749Y0049755D01*
X0015757Y0048157D02*
X0067843Y0048157D01*
X0067625Y0046558D02*
X0015975Y0046558D01*
X0015557Y0044960D02*
X0068043Y0044960D01*
X0066623Y0043361D02*
X0016977Y0043361D01*
X0018575Y0041763D02*
X0065025Y0041763D01*
X0064210Y0040164D02*
X0019390Y0040164D01*
X0020052Y0038566D02*
X0063548Y0038566D01*
X0063500Y0036967D02*
X0020100Y0036967D01*
X0020100Y0035369D02*
X0063500Y0035369D01*
X0064071Y0033770D02*
X0019529Y0033770D01*
X0018867Y0032172D02*
X0064733Y0032172D01*
X0066289Y0030573D02*
X0017311Y0030573D01*
X0014597Y0028975D02*
X0069003Y0028975D01*
X0074597Y0028975D02*
X0111231Y0028975D01*
X0109710Y0030573D02*
X0077311Y0030573D01*
X0078867Y0032172D02*
X0109400Y0032172D01*
X0109400Y0033770D02*
X0079529Y0033770D01*
X0080100Y0035369D02*
X0109400Y0035369D01*
X0109400Y0036967D02*
X0080100Y0036967D01*
X0080052Y0038566D02*
X0109400Y0038566D01*
X0109400Y0040164D02*
X0079390Y0040164D01*
X0078575Y0041763D02*
X0109400Y0041763D01*
X0109400Y0043361D02*
X0076977Y0043361D01*
X0075557Y0044960D02*
X0109400Y0044960D01*
X0109400Y0046558D02*
X0075975Y0046558D01*
X0075757Y0048157D02*
X0109400Y0048157D01*
X0109400Y0049755D02*
X0074749Y0049755D01*
X0073420Y0052952D02*
X0093718Y0052952D01*
X0092428Y0054551D02*
X0075387Y0054551D01*
X0075975Y0056149D02*
X0091900Y0056149D01*
X0091900Y0057748D02*
X0075926Y0057748D01*
X0075158Y0059346D02*
X0092551Y0059346D01*
X0092597Y0064142D02*
X0075046Y0064142D01*
X0075880Y0065740D02*
X0091935Y0065740D01*
X0091900Y0067339D02*
X0075975Y0067339D01*
X0075433Y0068937D02*
X0092382Y0068937D01*
X0093606Y0070536D02*
X0073690Y0070536D01*
X0072824Y0072533D02*
X0073479Y0072746D01*
X0074093Y0073058D01*
X0074650Y0073463D01*
X0075137Y0073950D01*
X0075542Y0074507D01*
X0075854Y0075121D01*
X0076067Y0075776D01*
X0076175Y0076456D01*
X0076175Y0076800D01*
X0076175Y0077144D01*
X0076067Y0077824D01*
X0075854Y0078479D01*
X0075542Y0079093D01*
X0075137Y0079650D01*
X0074650Y0080137D01*
X0074093Y0080542D01*
X0073479Y0080854D01*
X0072824Y0081067D01*
X0072144Y0081175D01*
X0071800Y0081175D01*
X0071456Y0081175D01*
X0070776Y0081067D01*
X0070121Y0080854D01*
X0069507Y0080542D01*
X0068950Y0080137D01*
X0068463Y0079650D01*
X0068058Y0079093D01*
X0067746Y0078479D01*
X0067533Y0077824D01*
X0067425Y0077144D01*
X0067425Y0076800D01*
X0071800Y0076800D01*
X0071800Y0076800D01*
X0071800Y0081175D01*
X0071800Y0076800D01*
X0076175Y0076800D01*
X0071800Y0076800D01*
X0071800Y0076800D01*
X0071800Y0076800D01*
X0071800Y0072425D01*
X0072144Y0072425D01*
X0072824Y0072533D01*
X0071800Y0072425D02*
X0071800Y0076800D01*
X0071800Y0076800D01*
X0067425Y0076800D01*
X0067425Y0076456D01*
X0067533Y0075776D01*
X0067746Y0075121D01*
X0068058Y0074507D01*
X0068463Y0073950D01*
X0068950Y0073463D01*
X0069507Y0073058D01*
X0070121Y0072746D01*
X0070776Y0072533D01*
X0071456Y0072425D01*
X0071800Y0072425D01*
X0071800Y0073733D02*
X0071800Y0073733D01*
X0071800Y0075332D02*
X0071800Y0075332D01*
X0071800Y0076930D02*
X0071800Y0076930D01*
X0071800Y0078529D02*
X0071800Y0078529D01*
X0071800Y0080127D02*
X0071800Y0080127D01*
X0072630Y0082625D02*
X0074165Y0083261D01*
X0075339Y0084435D01*
X0075975Y0085970D01*
X0075975Y0087581D01*
X0082794Y0094400D01*
X0115806Y0094400D01*
X0119206Y0091000D01*
X0118365Y0091000D01*
X0116821Y0090361D01*
X0115639Y0089179D01*
X0115000Y0087635D01*
X0115000Y0085965D01*
X0115639Y0084421D01*
X0116821Y0083239D01*
X0118365Y0082600D01*
X0125235Y0082600D01*
X0126779Y0083239D01*
X0127961Y0084421D01*
X0128600Y0085965D01*
X0128600Y0087635D01*
X0127961Y0089179D01*
X0127740Y0089400D01*
X0145860Y0089400D01*
X0145639Y0089179D01*
X0145000Y0087635D01*
X0145000Y0085965D01*
X0145639Y0084421D01*
X0146821Y0083239D01*
X0148365Y0082600D01*
X0155235Y0082600D01*
X0156779Y0083239D01*
X0157961Y0084421D01*
X0158600Y0085965D01*
X0158600Y0087635D01*
X0157961Y0089179D01*
X0157740Y0089400D01*
X0167825Y0089400D01*
X0167825Y0088762D01*
X0168762Y0087825D01*
X0174838Y0087825D01*
X0175775Y0088762D01*
X0175775Y0094838D01*
X0174838Y0095775D01*
X0168762Y0095775D01*
X0167825Y0094838D01*
X0167825Y0094200D01*
X0122794Y0094200D01*
X0118159Y0098835D01*
X0117277Y0099200D01*
X0081323Y0099200D01*
X0080441Y0098835D01*
X0079765Y0098159D01*
X0072581Y0090975D01*
X0070970Y0090975D01*
X0069435Y0090339D01*
X0068261Y0089165D01*
X0067625Y0087630D01*
X0067625Y0085970D01*
X0068261Y0084435D01*
X0069435Y0083261D01*
X0070970Y0082625D01*
X0072630Y0082625D01*
X0074228Y0083324D02*
X0116736Y0083324D01*
X0115432Y0084923D02*
X0075541Y0084923D01*
X0075975Y0086521D02*
X0115000Y0086521D01*
X0115201Y0088120D02*
X0076514Y0088120D01*
X0078112Y0089718D02*
X0116178Y0089718D01*
X0118889Y0091317D02*
X0079711Y0091317D01*
X0081309Y0092915D02*
X0117291Y0092915D01*
X0116800Y0096800D02*
X0121800Y0091800D01*
X0171800Y0091800D01*
X0175775Y0091317D02*
X0185000Y0091317D01*
X0185000Y0090965D02*
X0185639Y0089421D01*
X0186821Y0088239D01*
X0188365Y0087600D01*
X0195235Y0087600D01*
X0196779Y0088239D01*
X0197961Y0089421D01*
X0198600Y0090965D01*
X0198600Y0092635D01*
X0197961Y0094179D01*
X0196779Y0095361D01*
X0195235Y0096000D01*
X0188365Y0096000D01*
X0186821Y0095361D01*
X0185639Y0094179D01*
X0185000Y0092635D01*
X0185000Y0090965D01*
X0185516Y0089718D02*
X0175775Y0089718D01*
X0175132Y0088120D02*
X0187110Y0088120D01*
X0188365Y0086000D02*
X0186821Y0085361D01*
X0185639Y0084179D01*
X0185000Y0082635D01*
X0185000Y0080965D01*
X0185639Y0079421D01*
X0186821Y0078239D01*
X0188365Y0077600D01*
X0195235Y0077600D01*
X0196779Y0078239D01*
X0197961Y0079421D01*
X0198600Y0080965D01*
X0198600Y0082635D01*
X0197961Y0084179D01*
X0196779Y0085361D01*
X0195235Y0086000D01*
X0188365Y0086000D01*
X0186383Y0084923D02*
X0180690Y0084923D01*
X0180775Y0083324D02*
X0185285Y0083324D01*
X0185000Y0081726D02*
X0180775Y0081726D01*
X0180775Y0080127D02*
X0185347Y0080127D01*
X0186532Y0078529D02*
X0180541Y0078529D01*
X0179200Y0076930D02*
X0242600Y0076930D01*
X0242600Y0075332D02*
X0226808Y0075332D01*
X0225235Y0077600D02*
X0226779Y0078239D01*
X0227961Y0079421D01*
X0228600Y0080965D01*
X0228600Y0082635D01*
X0227961Y0084179D01*
X0226779Y0085361D01*
X0225235Y0086000D01*
X0218365Y0086000D01*
X0216821Y0085361D01*
X0215639Y0084179D01*
X0215000Y0082635D01*
X0215000Y0080965D01*
X0215639Y0079421D01*
X0216821Y0078239D01*
X0218365Y0077600D01*
X0225235Y0077600D01*
X0227068Y0078529D02*
X0242600Y0078529D01*
X0244187Y0080127D02*
X0228253Y0080127D01*
X0228600Y0081726D02*
X0295701Y0081726D01*
X0295701Y0083324D02*
X0228315Y0083324D01*
X0227217Y0084923D02*
X0295701Y0084923D01*
X0295701Y0086521D02*
X0158600Y0086521D01*
X0158399Y0088120D02*
X0168468Y0088120D01*
X0172910Y0084923D02*
X0158168Y0084923D01*
X0156864Y0083324D02*
X0172825Y0083324D01*
X0172825Y0081726D02*
X0006600Y0081726D01*
X0006600Y0083324D02*
X0009372Y0083324D01*
X0009435Y0083261D02*
X0010970Y0082625D01*
X0012630Y0082625D01*
X0014165Y0083261D01*
X0015339Y0084435D01*
X0015975Y0085970D01*
X0015975Y0087630D01*
X0015339Y0089165D01*
X0014165Y0090339D01*
X0012630Y0090975D01*
X0010970Y0090975D01*
X0009435Y0090339D01*
X0008261Y0089165D01*
X0007625Y0087630D01*
X0007625Y0085970D01*
X0008261Y0084435D01*
X0009435Y0083261D01*
X0008059Y0084923D02*
X0006600Y0084923D01*
X0006600Y0086521D02*
X0007625Y0086521D01*
X0007828Y0088120D02*
X0006600Y0088120D01*
X0006600Y0089718D02*
X0008814Y0089718D01*
X0006600Y0091317D02*
X0072923Y0091317D01*
X0072630Y0092625D02*
X0074165Y0093261D01*
X0075339Y0094435D01*
X0075975Y0095970D01*
X0075975Y0097630D01*
X0075339Y0099165D01*
X0074165Y0100339D01*
X0072630Y0100975D01*
X0070970Y0100975D01*
X0069435Y0100339D01*
X0068261Y0099165D01*
X0067625Y0097630D01*
X0067625Y0095970D01*
X0068261Y0094435D01*
X0069435Y0093261D01*
X0070970Y0092625D01*
X0072630Y0092625D01*
X0073330Y0092915D02*
X0074521Y0092915D01*
X0075372Y0094514D02*
X0076120Y0094514D01*
X0075975Y0096112D02*
X0077718Y0096112D01*
X0079317Y0097711D02*
X0075942Y0097711D01*
X0075195Y0099309D02*
X0185751Y0099309D01*
X0185639Y0099421D02*
X0186821Y0098239D01*
X0188365Y0097600D01*
X0195235Y0097600D01*
X0196779Y0098239D01*
X0197961Y0099421D01*
X0198600Y0100965D01*
X0198600Y0102635D01*
X0197961Y0104179D01*
X0196779Y0105361D01*
X0195235Y0106000D01*
X0188365Y0106000D01*
X0186821Y0105361D01*
X0185639Y0104179D01*
X0185000Y0102635D01*
X0185000Y0100965D01*
X0185639Y0099421D01*
X0185024Y0100908D02*
X0072792Y0100908D01*
X0072630Y0102625D02*
X0074165Y0103261D01*
X0075339Y0104435D01*
X0075975Y0105970D01*
X0075975Y0107630D01*
X0075339Y0109165D01*
X0074165Y0110339D01*
X0072630Y0110975D01*
X0070970Y0110975D01*
X0069435Y0110339D01*
X0068261Y0109165D01*
X0067625Y0107630D01*
X0067625Y0105970D01*
X0068261Y0104435D01*
X0069435Y0103261D01*
X0070970Y0102625D01*
X0072630Y0102625D01*
X0070808Y0100908D02*
X0012792Y0100908D01*
X0012630Y0100975D02*
X0010970Y0100975D01*
X0009435Y0100339D01*
X0008261Y0099165D01*
X0007625Y0097630D01*
X0007625Y0095970D01*
X0008261Y0094435D01*
X0009435Y0093261D01*
X0010970Y0092625D01*
X0012630Y0092625D01*
X0014165Y0093261D01*
X0015339Y0094435D01*
X0015975Y0095970D01*
X0015975Y0097630D01*
X0015339Y0099165D01*
X0014165Y0100339D01*
X0012630Y0100975D01*
X0012630Y0102625D02*
X0010970Y0102625D01*
X0009435Y0103261D01*
X0008261Y0104435D01*
X0007625Y0105970D01*
X0007625Y0107630D01*
X0008261Y0109165D01*
X0009435Y0110339D01*
X0010970Y0110975D01*
X0012630Y0110975D01*
X0014165Y0110339D01*
X0015339Y0109165D01*
X0015975Y0107630D01*
X0015975Y0105970D01*
X0015339Y0104435D01*
X0014165Y0103261D01*
X0012630Y0102625D01*
X0010808Y0100908D02*
X0006600Y0100908D01*
X0006600Y0102506D02*
X0094362Y0102506D01*
X0094024Y0102646D02*
X0095825Y0101900D01*
X0097775Y0101900D01*
X0099576Y0102646D01*
X0100954Y0104024D01*
X0101700Y0105825D01*
X0101700Y0107775D01*
X0100954Y0109576D01*
X0099576Y0110954D01*
X0097775Y0111700D01*
X0095825Y0111700D01*
X0094024Y0110954D01*
X0092646Y0109576D01*
X0091900Y0107775D01*
X0091900Y0105825D01*
X0092646Y0104024D01*
X0094024Y0102646D01*
X0092613Y0104105D02*
X0075009Y0104105D01*
X0075864Y0105703D02*
X0091951Y0105703D01*
X0091900Y0107302D02*
X0075975Y0107302D01*
X0075449Y0108900D02*
X0092366Y0108900D01*
X0093569Y0110499D02*
X0073780Y0110499D01*
X0072630Y0112625D02*
X0074165Y0113261D01*
X0075304Y0114400D01*
X0201584Y0114400D01*
X0201840Y0114353D01*
X0202056Y0114400D01*
X0202277Y0114400D01*
X0202519Y0114500D01*
X0202774Y0114555D01*
X0202955Y0114681D01*
X0203159Y0114765D01*
X0203344Y0114950D01*
X0203559Y0115098D01*
X0203678Y0115284D01*
X0203835Y0115441D01*
X0203934Y0115682D01*
X0204076Y0115901D01*
X0204115Y0116118D01*
X0204200Y0116323D01*
X0204200Y0116584D01*
X0207825Y0136522D01*
X0207825Y0133762D01*
X0208762Y0132825D01*
X0209400Y0132825D01*
X0209400Y0121323D01*
X0209765Y0120441D01*
X0210441Y0119765D01*
X0211323Y0119400D01*
X0215660Y0119400D01*
X0216821Y0118239D01*
X0218365Y0117600D01*
X0225235Y0117600D01*
X0226779Y0118239D01*
X0227961Y0119421D01*
X0228600Y0120965D01*
X0228600Y0122635D01*
X0227961Y0124179D01*
X0226779Y0125361D01*
X0225235Y0126000D01*
X0218365Y0126000D01*
X0216821Y0125361D01*
X0215660Y0124200D01*
X0214200Y0124200D01*
X0214200Y0132825D01*
X0214838Y0132825D01*
X0215249Y0133237D01*
X0215000Y0132635D01*
X0215000Y0130965D01*
X0215639Y0129421D01*
X0216821Y0128239D01*
X0218365Y0127600D01*
X0225235Y0127600D01*
X0226779Y0128239D01*
X0227961Y0129421D01*
X0228600Y0130965D01*
X0228600Y0132635D01*
X0227961Y0134179D01*
X0226779Y0135361D01*
X0225235Y0136000D01*
X0218365Y0136000D01*
X0216821Y0135361D01*
X0215775Y0134314D01*
X0215775Y0139286D01*
X0216821Y0138239D01*
X0218365Y0137600D01*
X0225235Y0137600D01*
X0226779Y0138239D01*
X0227961Y0139421D01*
X0228600Y0140965D01*
X0228600Y0142635D01*
X0227961Y0144179D01*
X0226779Y0145361D01*
X0225235Y0146000D01*
X0218365Y0146000D01*
X0216821Y0145361D01*
X0215639Y0144179D01*
X0215000Y0142635D01*
X0215000Y0140965D01*
X0215249Y0140363D01*
X0214838Y0140775D01*
X0208762Y0140775D01*
X0208562Y0140574D01*
X0213803Y0169400D01*
X0215660Y0169400D01*
X0216821Y0168239D01*
X0218365Y0167600D01*
X0225235Y0167600D01*
X0226779Y0168239D01*
X0227961Y0169421D01*
X0228600Y0170965D01*
X0228600Y0172635D01*
X0227961Y0174179D01*
X0226779Y0175361D01*
X0225235Y0176000D01*
X0218365Y0176000D01*
X0216821Y0175361D01*
X0215660Y0174200D01*
X0212016Y0174200D01*
X0211760Y0174247D01*
X0211544Y0174200D01*
X0211323Y0174200D01*
X0211081Y0174100D01*
X0210826Y0174045D01*
X0210645Y0173919D01*
X0210441Y0173835D01*
X0210256Y0173650D01*
X0210041Y0173502D01*
X0209922Y0173316D01*
X0209765Y0173159D01*
X0209666Y0172918D01*
X0209524Y0172699D01*
X0209485Y0172482D01*
X0209400Y0172277D01*
X0209400Y0172016D01*
X0205430Y0150182D01*
X0204838Y0150775D01*
X0204200Y0150775D01*
X0204200Y0162277D01*
X0203835Y0163159D01*
X0203159Y0163835D01*
X0202277Y0164200D01*
X0197940Y0164200D01*
X0196779Y0165361D01*
X0195235Y0166000D01*
X0194200Y0166000D01*
X0194200Y0167600D01*
X0195235Y0167600D01*
X0196779Y0168239D01*
X0197961Y0169421D01*
X0198600Y0170965D01*
X0198600Y0172635D01*
X0197961Y0174179D01*
X0196779Y0175361D01*
X0195235Y0176000D01*
X0188365Y0176000D01*
X0186821Y0175361D01*
X0185639Y0174179D01*
X0185000Y0172635D01*
X0185000Y0170965D01*
X0185639Y0169421D01*
X0186821Y0168239D01*
X0188365Y0167600D01*
X0189400Y0167600D01*
X0189400Y0166000D01*
X0188365Y0166000D01*
X0186821Y0165361D01*
X0185639Y0164179D01*
X0185000Y0162635D01*
X0185000Y0160965D01*
X0185639Y0159421D01*
X0186821Y0158239D01*
X0188365Y0157600D01*
X0195235Y0157600D01*
X0196779Y0158239D01*
X0197940Y0159400D01*
X0199400Y0159400D01*
X0199400Y0150775D01*
X0198762Y0150775D01*
X0198351Y0150363D01*
X0198600Y0150965D01*
X0198600Y0152635D01*
X0197961Y0154179D01*
X0196779Y0155361D01*
X0195235Y0156000D01*
X0188365Y0156000D01*
X0186821Y0155361D01*
X0185639Y0154179D01*
X0185000Y0152635D01*
X0185000Y0150965D01*
X0185639Y0149421D01*
X0186821Y0148239D01*
X0188365Y0147600D01*
X0195235Y0147600D01*
X0196779Y0148239D01*
X0197825Y0149286D01*
X0197825Y0144314D01*
X0196779Y0145361D01*
X0195235Y0146000D01*
X0188365Y0146000D01*
X0186821Y0145361D01*
X0185639Y0144179D01*
X0185000Y0142635D01*
X0185000Y0140965D01*
X0185639Y0139421D01*
X0186821Y0138239D01*
X0188365Y0137600D01*
X0195235Y0137600D01*
X0196779Y0138239D01*
X0197961Y0139421D01*
X0198600Y0140965D01*
X0198600Y0142635D01*
X0198351Y0143237D01*
X0198762Y0142825D01*
X0204093Y0142825D01*
X0199797Y0119200D01*
X0197950Y0119200D01*
X0198163Y0119494D01*
X0198478Y0120111D01*
X0198692Y0120770D01*
X0198800Y0121454D01*
X0198800Y0121800D01*
X0198800Y0122146D01*
X0198692Y0122830D01*
X0198478Y0123489D01*
X0198163Y0124106D01*
X0197756Y0124666D01*
X0197266Y0125156D01*
X0196706Y0125563D01*
X0196089Y0125878D01*
X0195430Y0126092D01*
X0194746Y0126200D01*
X0191800Y0126200D01*
X0191800Y0121800D01*
X0191800Y0121800D01*
X0198800Y0121800D01*
X0191800Y0121800D01*
X0191800Y0121800D01*
X0191800Y0121800D01*
X0184800Y0121800D01*
X0184800Y0122146D01*
X0184908Y0122830D01*
X0185122Y0123489D01*
X0185437Y0124106D01*
X0185844Y0124666D01*
X0186334Y0125156D01*
X0186894Y0125563D01*
X0187511Y0125878D01*
X0188170Y0126092D01*
X0188854Y0126200D01*
X0191800Y0126200D01*
X0191800Y0121800D01*
X0184800Y0121800D01*
X0184800Y0121454D01*
X0184908Y0120770D01*
X0185122Y0120111D01*
X0185437Y0119494D01*
X0185650Y0119200D01*
X0170775Y0119200D01*
X0170775Y0124400D01*
X0176715Y0124400D01*
X0177106Y0124372D01*
X0177189Y0124400D01*
X0177277Y0124400D01*
X0177640Y0124550D01*
X0187662Y0127891D01*
X0188365Y0127600D01*
X0195235Y0127600D01*
X0196779Y0128239D01*
X0197961Y0129421D01*
X0198600Y0130965D01*
X0198600Y0132635D01*
X0197961Y0134179D01*
X0196779Y0135361D01*
X0195235Y0136000D01*
X0188365Y0136000D01*
X0186821Y0135361D01*
X0185639Y0134179D01*
X0185000Y0132635D01*
X0185000Y0132063D01*
X0176411Y0129200D01*
X0157740Y0129200D01*
X0157961Y0129421D01*
X0158600Y0130965D01*
X0158600Y0132635D01*
X0157961Y0134179D01*
X0156779Y0135361D01*
X0155235Y0136000D01*
X0148365Y0136000D01*
X0146821Y0135361D01*
X0145639Y0134179D01*
X0145000Y0132635D01*
X0145000Y0130965D01*
X0145639Y0129421D01*
X0145860Y0129200D01*
X0127740Y0129200D01*
X0127961Y0129421D01*
X0128600Y0130965D01*
X0128600Y0132635D01*
X0127961Y0134179D01*
X0126779Y0135361D01*
X0125235Y0136000D01*
X0118365Y0136000D01*
X0116821Y0135361D01*
X0115639Y0134179D01*
X0115000Y0132635D01*
X0115000Y0130965D01*
X0115639Y0129421D01*
X0115860Y0129200D01*
X0100140Y0129200D01*
X0101000Y0130060D01*
X0101000Y0133540D01*
X0098540Y0136000D01*
X0095060Y0136000D01*
X0092600Y0133540D01*
X0092600Y0130060D01*
X0093460Y0129200D01*
X0075304Y0129200D01*
X0074165Y0130339D01*
X0072630Y0130975D01*
X0070970Y0130975D01*
X0069435Y0130339D01*
X0068261Y0129165D01*
X0067625Y0127630D01*
X0067625Y0125970D01*
X0068261Y0124435D01*
X0069435Y0123261D01*
X0070970Y0122625D01*
X0072630Y0122625D01*
X0074165Y0123261D01*
X0075304Y0124400D01*
X0115860Y0124400D01*
X0115639Y0124179D01*
X0115000Y0122635D01*
X0115000Y0120965D01*
X0115639Y0119421D01*
X0115860Y0119200D01*
X0075304Y0119200D01*
X0074165Y0120339D01*
X0072630Y0120975D01*
X0070970Y0120975D01*
X0069435Y0120339D01*
X0068261Y0119165D01*
X0067625Y0117630D01*
X0067625Y0115970D01*
X0068261Y0114435D01*
X0069435Y0113261D01*
X0070970Y0112625D01*
X0072630Y0112625D01*
X0074600Y0113696D02*
X0243187Y0113696D01*
X0242050Y0114832D02*
X0244832Y0112050D01*
X0248768Y0112050D01*
X0251550Y0114832D01*
X0251550Y0118768D01*
X0248768Y0121550D01*
X0244832Y0121550D01*
X0242050Y0118768D01*
X0242050Y0114832D01*
X0242050Y0115294D02*
X0203688Y0115294D01*
X0204256Y0116893D02*
X0242050Y0116893D01*
X0242050Y0118491D02*
X0227031Y0118491D01*
X0228238Y0120090D02*
X0243372Y0120090D01*
X0250228Y0120090D02*
X0295701Y0120090D01*
X0295701Y0121688D02*
X0228600Y0121688D01*
X0228330Y0123287D02*
X0295701Y0123287D01*
X0295701Y0124885D02*
X0227254Y0124885D01*
X0226400Y0128082D02*
X0295701Y0128082D01*
X0295701Y0126484D02*
X0214200Y0126484D01*
X0214200Y0128082D02*
X0217200Y0128082D01*
X0215532Y0129681D02*
X0214200Y0129681D01*
X0214200Y0131279D02*
X0215000Y0131279D01*
X0214890Y0132878D02*
X0215100Y0132878D01*
X0215775Y0134476D02*
X0215937Y0134476D01*
X0215775Y0136075D02*
X0242050Y0136075D01*
X0242050Y0134832D02*
X0244832Y0132050D01*
X0248768Y0132050D01*
X0251550Y0134832D01*
X0251550Y0138768D01*
X0248768Y0141550D01*
X0244832Y0141550D01*
X0242050Y0138768D01*
X0242050Y0134832D01*
X0242406Y0134476D02*
X0227663Y0134476D01*
X0228500Y0132878D02*
X0244005Y0132878D01*
X0249595Y0132878D02*
X0295701Y0132878D01*
X0295701Y0134476D02*
X0251194Y0134476D01*
X0251550Y0136075D02*
X0295701Y0136075D01*
X0295701Y0137673D02*
X0251550Y0137673D01*
X0251046Y0139272D02*
X0295701Y0139272D01*
X0295701Y0140870D02*
X0249447Y0140870D01*
X0244153Y0140870D02*
X0228561Y0140870D01*
X0228600Y0142469D02*
X0295701Y0142469D01*
X0295701Y0144068D02*
X0228007Y0144068D01*
X0226042Y0145666D02*
X0295701Y0145666D01*
X0295701Y0147265D02*
X0209778Y0147265D01*
X0210069Y0148863D02*
X0216197Y0148863D01*
X0215639Y0149421D02*
X0216821Y0148239D01*
X0218365Y0147600D01*
X0225235Y0147600D01*
X0226779Y0148239D01*
X0227961Y0149421D01*
X0228600Y0150965D01*
X0228600Y0152635D01*
X0227961Y0154179D01*
X0226779Y0155361D01*
X0225235Y0156000D01*
X0218365Y0156000D01*
X0216821Y0155361D01*
X0215639Y0154179D01*
X0215000Y0152635D01*
X0215000Y0150965D01*
X0215639Y0149421D01*
X0215208Y0150462D02*
X0210360Y0150462D01*
X0210650Y0152060D02*
X0215000Y0152060D01*
X0215424Y0153659D02*
X0210941Y0153659D01*
X0211232Y0155257D02*
X0216717Y0155257D01*
X0218365Y0157600D02*
X0225235Y0157600D01*
X0226779Y0158239D01*
X0227961Y0159421D01*
X0228600Y0160965D01*
X0228600Y0162635D01*
X0227961Y0164179D01*
X0226779Y0165361D01*
X0225235Y0166000D01*
X0218365Y0166000D01*
X0216821Y0165361D01*
X0215639Y0164179D01*
X0215000Y0162635D01*
X0215000Y0160965D01*
X0215639Y0159421D01*
X0216821Y0158239D01*
X0218365Y0157600D01*
X0216606Y0158454D02*
X0211813Y0158454D01*
X0211522Y0156856D02*
X0242600Y0156856D01*
X0242600Y0158454D02*
X0226994Y0158454D01*
X0228222Y0160053D02*
X0244113Y0160053D01*
X0245060Y0161000D02*
X0242600Y0158540D01*
X0242600Y0155060D01*
X0245060Y0152600D01*
X0248540Y0152600D01*
X0251000Y0155060D01*
X0251000Y0158540D01*
X0248540Y0161000D01*
X0245060Y0161000D01*
X0249487Y0160053D02*
X0274113Y0160053D01*
X0275060Y0161000D02*
X0272600Y0158540D01*
X0272600Y0155060D01*
X0275060Y0152600D01*
X0278540Y0152600D01*
X0281000Y0155060D01*
X0281000Y0158540D01*
X0278540Y0161000D01*
X0275060Y0161000D01*
X0272600Y0158454D02*
X0251000Y0158454D01*
X0251000Y0156856D02*
X0272600Y0156856D01*
X0272600Y0155257D02*
X0251000Y0155257D01*
X0249598Y0153659D02*
X0274002Y0153659D01*
X0279598Y0153659D02*
X0295701Y0153659D01*
X0295701Y0155257D02*
X0281000Y0155257D01*
X0281000Y0156856D02*
X0295701Y0156856D01*
X0295701Y0158454D02*
X0281000Y0158454D01*
X0279487Y0160053D02*
X0295701Y0160053D01*
X0295701Y0161651D02*
X0228600Y0161651D01*
X0228346Y0163250D02*
X0295701Y0163250D01*
X0295701Y0164848D02*
X0227292Y0164848D01*
X0226310Y0168045D02*
X0295701Y0168045D01*
X0295701Y0166447D02*
X0213266Y0166447D01*
X0213557Y0168045D02*
X0217290Y0168045D01*
X0216308Y0164848D02*
X0212975Y0164848D01*
X0212685Y0163250D02*
X0215254Y0163250D01*
X0215000Y0161651D02*
X0212394Y0161651D01*
X0212103Y0160053D02*
X0215378Y0160053D01*
X0207515Y0161651D02*
X0204200Y0161651D01*
X0204200Y0160053D02*
X0207225Y0160053D01*
X0206934Y0158454D02*
X0204200Y0158454D01*
X0204200Y0156856D02*
X0206644Y0156856D01*
X0206353Y0155257D02*
X0204200Y0155257D01*
X0204200Y0153659D02*
X0206062Y0153659D01*
X0205772Y0152060D02*
X0204200Y0152060D01*
X0205151Y0150462D02*
X0205481Y0150462D01*
X0201800Y0146800D02*
X0201800Y0161800D01*
X0191800Y0161800D01*
X0191800Y0171800D01*
X0189400Y0166447D02*
X0179200Y0166447D01*
X0179200Y0168045D02*
X0187290Y0168045D01*
X0185547Y0169644D02*
X0179200Y0169644D01*
X0179200Y0171242D02*
X0185000Y0171242D01*
X0185085Y0172841D02*
X0179200Y0172841D01*
X0179200Y0174439D02*
X0185900Y0174439D01*
X0186821Y0178239D02*
X0188365Y0177600D01*
X0195235Y0177600D01*
X0196779Y0178239D01*
X0197961Y0179421D01*
X0198600Y0180965D01*
X0198600Y0182635D01*
X0197961Y0184179D01*
X0196779Y0185361D01*
X0195235Y0186000D01*
X0188365Y0186000D01*
X0186821Y0185361D01*
X0185660Y0184200D01*
X0176323Y0184200D01*
X0175441Y0183835D01*
X0174765Y0183159D01*
X0174400Y0182277D01*
X0174400Y0140775D01*
X0173762Y0140775D01*
X0172825Y0139838D01*
X0172825Y0133762D01*
X0173762Y0132825D01*
X0179838Y0132825D01*
X0180775Y0133762D01*
X0180775Y0139838D01*
X0179838Y0140775D01*
X0179200Y0140775D01*
X0179200Y0179400D01*
X0185660Y0179400D01*
X0186821Y0178239D01*
X0185826Y0179235D02*
X0179200Y0179235D01*
X0179200Y0177636D02*
X0188277Y0177636D01*
X0191800Y0181800D02*
X0176800Y0181800D01*
X0176800Y0136800D01*
X0180775Y0136075D02*
X0202865Y0136075D01*
X0203156Y0137673D02*
X0195413Y0137673D01*
X0197812Y0139272D02*
X0203446Y0139272D01*
X0203737Y0140870D02*
X0198561Y0140870D01*
X0198600Y0142469D02*
X0204028Y0142469D01*
X0208616Y0140870D02*
X0215039Y0140870D01*
X0215000Y0142469D02*
X0208906Y0142469D01*
X0209197Y0144068D02*
X0215593Y0144068D01*
X0217558Y0145666D02*
X0209488Y0145666D01*
X0215775Y0139272D02*
X0215788Y0139272D01*
X0215775Y0137673D02*
X0218187Y0137673D01*
X0211800Y0136800D02*
X0211800Y0121800D01*
X0221800Y0121800D01*
X0216569Y0118491D02*
X0204547Y0118491D01*
X0204837Y0120090D02*
X0210116Y0120090D01*
X0209400Y0121688D02*
X0205128Y0121688D01*
X0205419Y0123287D02*
X0209400Y0123287D01*
X0209400Y0124885D02*
X0205709Y0124885D01*
X0206000Y0126484D02*
X0209400Y0126484D01*
X0209400Y0128082D02*
X0206291Y0128082D01*
X0206581Y0129681D02*
X0209400Y0129681D01*
X0209400Y0131279D02*
X0206872Y0131279D01*
X0207163Y0132878D02*
X0208710Y0132878D01*
X0207825Y0134476D02*
X0207453Y0134476D01*
X0207744Y0136075D02*
X0207825Y0136075D01*
X0202575Y0134476D02*
X0197663Y0134476D01*
X0198500Y0132878D02*
X0202284Y0132878D01*
X0201993Y0131279D02*
X0198600Y0131279D01*
X0198068Y0129681D02*
X0201703Y0129681D01*
X0201412Y0128082D02*
X0196400Y0128082D01*
X0197537Y0124885D02*
X0200831Y0124885D01*
X0200540Y0123287D02*
X0198543Y0123287D01*
X0198800Y0121688D02*
X0200249Y0121688D01*
X0199959Y0120090D02*
X0198467Y0120090D01*
X0201800Y0116800D02*
X0211800Y0171800D01*
X0221800Y0171800D01*
X0227700Y0174439D02*
X0295701Y0174439D01*
X0295701Y0172841D02*
X0228515Y0172841D01*
X0228600Y0171242D02*
X0295701Y0171242D01*
X0295701Y0169644D02*
X0228053Y0169644D01*
X0225235Y0177600D02*
X0218365Y0177600D01*
X0216821Y0178239D01*
X0215639Y0179421D01*
X0215000Y0180965D01*
X0215000Y0182635D01*
X0215639Y0184179D01*
X0216821Y0185361D01*
X0218365Y0186000D01*
X0225235Y0186000D01*
X0226779Y0185361D01*
X0227961Y0184179D01*
X0228600Y0182635D01*
X0228600Y0180965D01*
X0227961Y0179421D01*
X0226779Y0178239D01*
X0225235Y0177600D01*
X0225323Y0177636D02*
X0295701Y0177636D01*
X0295701Y0176038D02*
X0179200Y0176038D01*
X0174400Y0176038D02*
X0144200Y0176038D01*
X0144200Y0177636D02*
X0148277Y0177636D01*
X0148365Y0177600D02*
X0155235Y0177600D01*
X0156779Y0178239D01*
X0157961Y0179421D01*
X0158600Y0180965D01*
X0158600Y0182635D01*
X0157961Y0184179D01*
X0156779Y0185361D01*
X0155235Y0186000D01*
X0148365Y0186000D01*
X0146821Y0185361D01*
X0145639Y0184179D01*
X0145000Y0182635D01*
X0145000Y0180965D01*
X0145639Y0179421D01*
X0146821Y0178239D01*
X0148365Y0177600D01*
X0148365Y0176000D02*
X0146821Y0175361D01*
X0145639Y0174179D01*
X0145000Y0172635D01*
X0145000Y0170965D01*
X0145639Y0169421D01*
X0146821Y0168239D01*
X0148365Y0167600D01*
X0155235Y0167600D01*
X0156779Y0168239D01*
X0157961Y0169421D01*
X0158600Y0170965D01*
X0158600Y0172635D01*
X0157961Y0174179D01*
X0156779Y0175361D01*
X0155235Y0176000D01*
X0148365Y0176000D01*
X0145900Y0174439D02*
X0144200Y0174439D01*
X0144200Y0172841D02*
X0145085Y0172841D01*
X0145000Y0171242D02*
X0144200Y0171242D01*
X0144200Y0169644D02*
X0145547Y0169644D01*
X0144200Y0168045D02*
X0147290Y0168045D01*
X0148365Y0166000D02*
X0146821Y0165361D01*
X0145660Y0164200D01*
X0144200Y0164200D01*
X0144200Y0188219D01*
X0144444Y0188219D01*
X0145381Y0189156D01*
X0145381Y0194444D01*
X0144444Y0195381D01*
X0139156Y0195381D01*
X0138219Y0194444D01*
X0138219Y0189156D01*
X0139156Y0188219D01*
X0139400Y0188219D01*
X0139400Y0161323D01*
X0139765Y0160441D01*
X0140441Y0159765D01*
X0141323Y0159400D01*
X0145660Y0159400D01*
X0146821Y0158239D01*
X0148365Y0157600D01*
X0155235Y0157600D01*
X0156779Y0158239D01*
X0157961Y0159421D01*
X0158600Y0160965D01*
X0158600Y0162635D01*
X0157961Y0164179D01*
X0156779Y0165361D01*
X0155235Y0166000D01*
X0148365Y0166000D01*
X0146308Y0164848D02*
X0144200Y0164848D01*
X0144200Y0166447D02*
X0174400Y0166447D01*
X0174400Y0168045D02*
X0156310Y0168045D01*
X0158053Y0169644D02*
X0174400Y0169644D01*
X0174400Y0171242D02*
X0158600Y0171242D01*
X0158515Y0172841D02*
X0174400Y0172841D01*
X0174400Y0174439D02*
X0157700Y0174439D01*
X0155323Y0177636D02*
X0174400Y0177636D01*
X0174400Y0179235D02*
X0157774Y0179235D01*
X0158546Y0180833D02*
X0174400Y0180833D01*
X0174464Y0182432D02*
X0158600Y0182432D01*
X0158022Y0184030D02*
X0175913Y0184030D01*
X0187468Y0185629D02*
X0156132Y0185629D01*
X0147468Y0185629D02*
X0144200Y0185629D01*
X0144200Y0187227D02*
X0295701Y0187227D01*
X0295701Y0185629D02*
X0226132Y0185629D01*
X0228022Y0184030D02*
X0295701Y0184030D01*
X0295701Y0182432D02*
X0228600Y0182432D01*
X0228546Y0180833D02*
X0295701Y0180833D01*
X0295701Y0179235D02*
X0227774Y0179235D01*
X0218277Y0177636D02*
X0195323Y0177636D01*
X0197774Y0179235D02*
X0215826Y0179235D01*
X0215054Y0180833D02*
X0198546Y0180833D01*
X0198600Y0182432D02*
X0215000Y0182432D01*
X0215578Y0184030D02*
X0198022Y0184030D01*
X0196132Y0185629D02*
X0217468Y0185629D01*
X0215900Y0174439D02*
X0197700Y0174439D01*
X0198515Y0172841D02*
X0209615Y0172841D01*
X0209259Y0171242D02*
X0198600Y0171242D01*
X0198053Y0169644D02*
X0208969Y0169644D01*
X0208678Y0168045D02*
X0196310Y0168045D01*
X0194200Y0166447D02*
X0208387Y0166447D01*
X0208097Y0164848D02*
X0197292Y0164848D01*
X0196994Y0158454D02*
X0199400Y0158454D01*
X0199400Y0156856D02*
X0179200Y0156856D01*
X0179200Y0158454D02*
X0186606Y0158454D01*
X0185378Y0160053D02*
X0179200Y0160053D01*
X0179200Y0161651D02*
X0185000Y0161651D01*
X0185254Y0163250D02*
X0179200Y0163250D01*
X0179200Y0164848D02*
X0186308Y0164848D01*
X0174400Y0164848D02*
X0157292Y0164848D01*
X0158346Y0163250D02*
X0174400Y0163250D01*
X0174400Y0161651D02*
X0158600Y0161651D01*
X0158222Y0160053D02*
X0174400Y0160053D01*
X0174400Y0158454D02*
X0156994Y0158454D01*
X0151800Y0161800D02*
X0141800Y0161800D01*
X0141800Y0191800D01*
X0145381Y0192023D02*
X0295701Y0192023D01*
X0295701Y0193621D02*
X0145381Y0193621D01*
X0144605Y0195220D02*
X0295701Y0195220D01*
X0295701Y0196818D02*
X0080100Y0196818D01*
X0080100Y0195220D02*
X0138995Y0195220D01*
X0138219Y0193621D02*
X0079467Y0193621D01*
X0078761Y0192023D02*
X0138219Y0192023D01*
X0138219Y0190424D02*
X0077162Y0190424D01*
X0075480Y0188826D02*
X0138549Y0188826D01*
X0139400Y0187227D02*
X0075975Y0187227D01*
X0075834Y0185629D02*
X0117468Y0185629D01*
X0116821Y0185361D02*
X0115639Y0184179D01*
X0115000Y0182635D01*
X0115000Y0180965D01*
X0115639Y0179421D01*
X0116821Y0178239D01*
X0118365Y0177600D01*
X0125235Y0177600D01*
X0126779Y0178239D01*
X0127961Y0179421D01*
X0128600Y0180965D01*
X0128600Y0182635D01*
X0127961Y0184179D01*
X0126779Y0185361D01*
X0125235Y0186000D01*
X0118365Y0186000D01*
X0116821Y0185361D01*
X0115578Y0184030D02*
X0074934Y0184030D01*
X0072972Y0180833D02*
X0115054Y0180833D01*
X0115000Y0182432D02*
X0006600Y0182432D01*
X0006600Y0184030D02*
X0007625Y0184030D01*
X0007625Y0185629D02*
X0006600Y0185629D01*
X0006600Y0187227D02*
X0007625Y0187227D01*
X0007625Y0188826D02*
X0006600Y0188826D01*
X0015975Y0188826D02*
X0068120Y0188826D01*
X0067625Y0187227D02*
X0015975Y0187227D01*
X0015975Y0185629D02*
X0067766Y0185629D01*
X0068666Y0184030D02*
X0015975Y0184030D01*
X0014165Y0180339D02*
X0012630Y0180975D01*
X0010970Y0180975D01*
X0009435Y0180339D01*
X0008261Y0179165D01*
X0007625Y0177630D01*
X0007625Y0175970D01*
X0008261Y0174435D01*
X0009435Y0173261D01*
X0010970Y0172625D01*
X0012630Y0172625D01*
X0014165Y0173261D01*
X0015339Y0174435D01*
X0015975Y0175970D01*
X0015975Y0177630D01*
X0015339Y0179165D01*
X0014165Y0180339D01*
X0012972Y0180833D02*
X0070628Y0180833D01*
X0070970Y0180975D02*
X0069435Y0180339D01*
X0068261Y0179165D01*
X0067625Y0177630D01*
X0067625Y0175970D01*
X0068261Y0174435D01*
X0069435Y0173261D01*
X0070970Y0172625D01*
X0072630Y0172625D01*
X0074165Y0173261D01*
X0075339Y0174435D01*
X0075975Y0175970D01*
X0075975Y0177630D01*
X0075339Y0179165D01*
X0074165Y0180339D01*
X0072630Y0180975D01*
X0070970Y0180975D01*
X0068331Y0179235D02*
X0015269Y0179235D01*
X0015972Y0177636D02*
X0067628Y0177636D01*
X0067625Y0176038D02*
X0015975Y0176038D01*
X0015341Y0174439D02*
X0068259Y0174439D01*
X0070449Y0172841D02*
X0013151Y0172841D01*
X0012630Y0170975D02*
X0010970Y0170975D01*
X0009435Y0170339D01*
X0008261Y0169165D01*
X0007625Y0167630D01*
X0007625Y0165970D01*
X0008261Y0164435D01*
X0009435Y0163261D01*
X0010970Y0162625D01*
X0012630Y0162625D01*
X0014165Y0163261D01*
X0015339Y0164435D01*
X0015975Y0165970D01*
X0015975Y0167630D01*
X0015339Y0169165D01*
X0014165Y0170339D01*
X0012630Y0170975D01*
X0014860Y0169644D02*
X0068740Y0169644D01*
X0068261Y0169165D02*
X0067625Y0167630D01*
X0067625Y0165970D01*
X0068261Y0164435D01*
X0069435Y0163261D01*
X0070970Y0162625D01*
X0072630Y0162625D01*
X0074165Y0163261D01*
X0075339Y0164435D01*
X0075975Y0165970D01*
X0075975Y0167630D01*
X0075339Y0169165D01*
X0074165Y0170339D01*
X0072630Y0170975D01*
X0070970Y0170975D01*
X0069435Y0170339D01*
X0068261Y0169165D01*
X0067797Y0168045D02*
X0015803Y0168045D01*
X0015975Y0166447D02*
X0067625Y0166447D01*
X0068090Y0164848D02*
X0015510Y0164848D01*
X0014138Y0163250D02*
X0069462Y0163250D01*
X0070970Y0160975D02*
X0069435Y0160339D01*
X0068261Y0159165D01*
X0067625Y0157630D01*
X0067625Y0155970D01*
X0068261Y0154435D01*
X0069435Y0153261D01*
X0070970Y0152625D01*
X0072630Y0152625D01*
X0074165Y0153261D01*
X0075339Y0154435D01*
X0075975Y0155970D01*
X0075975Y0157630D01*
X0075339Y0159165D01*
X0074165Y0160339D01*
X0072630Y0160975D01*
X0070970Y0160975D01*
X0069149Y0160053D02*
X0014451Y0160053D01*
X0014165Y0160339D02*
X0012630Y0160975D01*
X0010970Y0160975D01*
X0009435Y0160339D01*
X0008261Y0159165D01*
X0007625Y0157630D01*
X0007625Y0155970D01*
X0008261Y0154435D01*
X0009435Y0153261D01*
X0010970Y0152625D01*
X0012630Y0152625D01*
X0014165Y0153261D01*
X0015339Y0154435D01*
X0015975Y0155970D01*
X0015975Y0157630D01*
X0015339Y0159165D01*
X0014165Y0160339D01*
X0015634Y0158454D02*
X0067966Y0158454D01*
X0067625Y0156856D02*
X0015975Y0156856D01*
X0015680Y0155257D02*
X0067920Y0155257D01*
X0069037Y0153659D02*
X0014563Y0153659D01*
X0013870Y0150462D02*
X0069730Y0150462D01*
X0069435Y0150339D02*
X0068261Y0149165D01*
X0067625Y0147630D01*
X0067625Y0145970D01*
X0068261Y0144435D01*
X0069435Y0143261D01*
X0070970Y0142625D01*
X0072630Y0142625D01*
X0074165Y0143261D01*
X0075339Y0144435D01*
X0075975Y0145970D01*
X0075975Y0147630D01*
X0075339Y0149165D01*
X0074165Y0150339D01*
X0072630Y0150975D01*
X0070970Y0150975D01*
X0069435Y0150339D01*
X0068136Y0148863D02*
X0015464Y0148863D01*
X0015339Y0149165D02*
X0014165Y0150339D01*
X0012630Y0150975D01*
X0010970Y0150975D01*
X0009435Y0150339D01*
X0008261Y0149165D01*
X0007625Y0147630D01*
X0007625Y0145970D01*
X0008261Y0144435D01*
X0009435Y0143261D01*
X0010970Y0142625D01*
X0012630Y0142625D01*
X0014165Y0143261D01*
X0015339Y0144435D01*
X0015975Y0145970D01*
X0015975Y0147630D01*
X0015339Y0149165D01*
X0015975Y0147265D02*
X0067625Y0147265D01*
X0067751Y0145666D02*
X0015849Y0145666D01*
X0014972Y0144068D02*
X0068628Y0144068D01*
X0069435Y0140339D02*
X0068261Y0139165D01*
X0067625Y0137630D01*
X0067625Y0135970D01*
X0068261Y0134435D01*
X0069435Y0133261D01*
X0070970Y0132625D01*
X0072630Y0132625D01*
X0074165Y0133261D01*
X0075339Y0134435D01*
X0075975Y0135970D01*
X0075975Y0137630D01*
X0075339Y0139165D01*
X0074165Y0140339D01*
X0072630Y0140975D01*
X0070970Y0140975D01*
X0069435Y0140339D01*
X0070718Y0140870D02*
X0012882Y0140870D01*
X0012630Y0140975D02*
X0010970Y0140975D01*
X0009435Y0140339D01*
X0008261Y0139165D01*
X0007625Y0137630D01*
X0007625Y0135970D01*
X0008261Y0134435D01*
X0009435Y0133261D01*
X0010970Y0132625D01*
X0012630Y0132625D01*
X0014165Y0133261D01*
X0015339Y0134435D01*
X0015975Y0135970D01*
X0015975Y0137630D01*
X0015339Y0139165D01*
X0014165Y0140339D01*
X0012630Y0140975D01*
X0010718Y0140870D02*
X0006600Y0140870D01*
X0006600Y0139272D02*
X0008368Y0139272D01*
X0007643Y0137673D02*
X0006600Y0137673D01*
X0006600Y0136075D02*
X0007625Y0136075D01*
X0008244Y0134476D02*
X0006600Y0134476D01*
X0006600Y0132878D02*
X0010359Y0132878D01*
X0010970Y0130975D02*
X0009435Y0130339D01*
X0008261Y0129165D01*
X0007625Y0127630D01*
X0007625Y0125970D01*
X0008261Y0124435D01*
X0009435Y0123261D01*
X0010970Y0122625D01*
X0012630Y0122625D01*
X0014165Y0123261D01*
X0015339Y0124435D01*
X0015975Y0125970D01*
X0015975Y0127630D01*
X0015339Y0129165D01*
X0014165Y0130339D01*
X0012630Y0130975D01*
X0010970Y0130975D01*
X0008777Y0129681D02*
X0006600Y0129681D01*
X0006600Y0131279D02*
X0092600Y0131279D01*
X0092600Y0132878D02*
X0073241Y0132878D01*
X0075356Y0134476D02*
X0093537Y0134476D01*
X0092979Y0129681D02*
X0074823Y0129681D01*
X0070359Y0132878D02*
X0013241Y0132878D01*
X0015356Y0134476D02*
X0068244Y0134476D01*
X0067625Y0136075D02*
X0015975Y0136075D01*
X0015957Y0137673D02*
X0067643Y0137673D01*
X0068368Y0139272D02*
X0015232Y0139272D01*
X0008628Y0144068D02*
X0006600Y0144068D01*
X0006600Y0145666D02*
X0007751Y0145666D01*
X0007625Y0147265D02*
X0006600Y0147265D01*
X0006600Y0148863D02*
X0008136Y0148863D01*
X0006600Y0150462D02*
X0009730Y0150462D01*
X0009037Y0153659D02*
X0006600Y0153659D01*
X0006600Y0155257D02*
X0007920Y0155257D01*
X0007625Y0156856D02*
X0006600Y0156856D01*
X0006600Y0158454D02*
X0007966Y0158454D01*
X0009149Y0160053D02*
X0006600Y0160053D01*
X0006600Y0161651D02*
X0092600Y0161651D01*
X0092600Y0160060D02*
X0095060Y0157600D01*
X0098540Y0157600D01*
X0101000Y0160060D01*
X0101000Y0163540D01*
X0098540Y0166000D01*
X0095060Y0166000D01*
X0092600Y0163540D01*
X0092600Y0160060D01*
X0092608Y0160053D02*
X0074451Y0160053D01*
X0075634Y0158454D02*
X0094206Y0158454D01*
X0099394Y0158454D02*
X0116606Y0158454D01*
X0116821Y0158239D02*
X0118365Y0157600D01*
X0125235Y0157600D01*
X0126779Y0158239D01*
X0127961Y0159421D01*
X0128600Y0160965D01*
X0128600Y0162635D01*
X0127961Y0164179D01*
X0126779Y0165361D01*
X0125235Y0166000D01*
X0118365Y0166000D01*
X0116821Y0165361D01*
X0115639Y0164179D01*
X0115000Y0162635D01*
X0115000Y0160965D01*
X0115639Y0159421D01*
X0116821Y0158239D01*
X0115378Y0160053D02*
X0100992Y0160053D01*
X0101000Y0161651D02*
X0115000Y0161651D01*
X0115254Y0163250D02*
X0101000Y0163250D01*
X0099692Y0164848D02*
X0116308Y0164848D01*
X0117290Y0168045D02*
X0075803Y0168045D01*
X0075975Y0166447D02*
X0139400Y0166447D01*
X0139400Y0168045D02*
X0126310Y0168045D01*
X0126779Y0168239D02*
X0127961Y0169421D01*
X0128600Y0170965D01*
X0128600Y0172635D01*
X0127961Y0174179D01*
X0126779Y0175361D01*
X0125235Y0176000D01*
X0118365Y0176000D01*
X0116821Y0175361D01*
X0115639Y0174179D01*
X0115000Y0172635D01*
X0115000Y0170965D01*
X0115639Y0169421D01*
X0116821Y0168239D01*
X0118365Y0167600D01*
X0125235Y0167600D01*
X0126779Y0168239D01*
X0128053Y0169644D02*
X0139400Y0169644D01*
X0139400Y0171242D02*
X0128600Y0171242D01*
X0128515Y0172841D02*
X0139400Y0172841D01*
X0139400Y0174439D02*
X0127700Y0174439D01*
X0125323Y0177636D02*
X0139400Y0177636D01*
X0139400Y0176038D02*
X0075975Y0176038D01*
X0075972Y0177636D02*
X0118277Y0177636D01*
X0115826Y0179235D02*
X0075269Y0179235D01*
X0075341Y0174439D02*
X0115900Y0174439D01*
X0115085Y0172841D02*
X0073151Y0172841D01*
X0074860Y0169644D02*
X0115547Y0169644D01*
X0115000Y0171242D02*
X0006600Y0171242D01*
X0006600Y0169644D02*
X0008740Y0169644D01*
X0007797Y0168045D02*
X0006600Y0168045D01*
X0006600Y0166447D02*
X0007625Y0166447D01*
X0008090Y0164848D02*
X0006600Y0164848D01*
X0006600Y0163250D02*
X0009462Y0163250D01*
X0010449Y0172841D02*
X0006600Y0172841D01*
X0006600Y0174439D02*
X0008259Y0174439D01*
X0007625Y0176038D02*
X0006600Y0176038D01*
X0006600Y0177636D02*
X0007628Y0177636D01*
X0008331Y0179235D02*
X0006600Y0179235D01*
X0006600Y0180833D02*
X0010628Y0180833D01*
X0017162Y0190424D02*
X0066438Y0190424D01*
X0064839Y0192023D02*
X0018761Y0192023D01*
X0019467Y0193621D02*
X0064133Y0193621D01*
X0063500Y0195220D02*
X0020100Y0195220D01*
X0020100Y0196818D02*
X0063500Y0196818D01*
X0075510Y0164848D02*
X0093908Y0164848D01*
X0092600Y0163250D02*
X0074138Y0163250D01*
X0075975Y0156856D02*
X0174400Y0156856D01*
X0174400Y0155257D02*
X0156883Y0155257D01*
X0156779Y0155361D02*
X0155235Y0156000D01*
X0148365Y0156000D01*
X0146821Y0155361D01*
X0145639Y0154179D01*
X0145000Y0152635D01*
X0145000Y0150965D01*
X0145639Y0149421D01*
X0146821Y0148239D01*
X0148365Y0147600D01*
X0155235Y0147600D01*
X0156779Y0148239D01*
X0157961Y0149421D01*
X0158600Y0150965D01*
X0158600Y0152635D01*
X0157961Y0154179D01*
X0156779Y0155361D01*
X0158176Y0153659D02*
X0174400Y0153659D01*
X0174400Y0152060D02*
X0158600Y0152060D01*
X0158392Y0150462D02*
X0174400Y0150462D01*
X0174400Y0148863D02*
X0157403Y0148863D01*
X0156042Y0145666D02*
X0174400Y0145666D01*
X0174400Y0144068D02*
X0158007Y0144068D01*
X0157961Y0144179D02*
X0156779Y0145361D01*
X0155235Y0146000D01*
X0148365Y0146000D01*
X0146821Y0145361D01*
X0145639Y0144179D01*
X0145000Y0142635D01*
X0145000Y0140965D01*
X0145639Y0139421D01*
X0146821Y0138239D01*
X0148365Y0137600D01*
X0155235Y0137600D01*
X0156779Y0138239D01*
X0157961Y0139421D01*
X0158600Y0140965D01*
X0158600Y0142635D01*
X0157961Y0144179D01*
X0158600Y0142469D02*
X0174400Y0142469D01*
X0174400Y0140870D02*
X0158561Y0140870D01*
X0157812Y0139272D02*
X0172825Y0139272D01*
X0172825Y0137673D02*
X0155413Y0137673D01*
X0157663Y0134476D02*
X0172825Y0134476D01*
X0172825Y0136075D02*
X0075975Y0136075D01*
X0075957Y0137673D02*
X0118187Y0137673D01*
X0118365Y0137600D02*
X0125235Y0137600D01*
X0126779Y0138239D01*
X0127961Y0139421D01*
X0128600Y0140965D01*
X0128600Y0142635D01*
X0127961Y0144179D01*
X0126779Y0145361D01*
X0125235Y0146000D01*
X0118365Y0146000D01*
X0116821Y0145361D01*
X0115639Y0144179D01*
X0115000Y0142635D01*
X0115000Y0140965D01*
X0115639Y0139421D01*
X0116821Y0138239D01*
X0118365Y0137600D01*
X0115788Y0139272D02*
X0075232Y0139272D01*
X0072882Y0140870D02*
X0115039Y0140870D01*
X0115000Y0142469D02*
X0006600Y0142469D01*
X0006600Y0152060D02*
X0115000Y0152060D01*
X0115000Y0152635D02*
X0115000Y0150965D01*
X0115639Y0149421D01*
X0116821Y0148239D01*
X0118365Y0147600D01*
X0125235Y0147600D01*
X0126779Y0148239D01*
X0127961Y0149421D01*
X0128600Y0150965D01*
X0128600Y0152635D01*
X0127961Y0154179D01*
X0126779Y0155361D01*
X0125235Y0156000D01*
X0118365Y0156000D01*
X0116821Y0155361D01*
X0115639Y0154179D01*
X0115000Y0152635D01*
X0115424Y0153659D02*
X0074563Y0153659D01*
X0075680Y0155257D02*
X0116717Y0155257D01*
X0115208Y0150462D02*
X0073870Y0150462D01*
X0075464Y0148863D02*
X0116197Y0148863D01*
X0117558Y0145666D02*
X0075849Y0145666D01*
X0075975Y0147265D02*
X0174400Y0147265D01*
X0179200Y0147265D02*
X0197825Y0147265D01*
X0197825Y0148863D02*
X0197403Y0148863D01*
X0198392Y0150462D02*
X0198449Y0150462D01*
X0198600Y0152060D02*
X0199400Y0152060D01*
X0199400Y0153659D02*
X0198176Y0153659D01*
X0199400Y0155257D02*
X0196883Y0155257D01*
X0186717Y0155257D02*
X0179200Y0155257D01*
X0179200Y0153659D02*
X0185424Y0153659D01*
X0185000Y0152060D02*
X0179200Y0152060D01*
X0179200Y0150462D02*
X0185208Y0150462D01*
X0186197Y0148863D02*
X0179200Y0148863D01*
X0179200Y0145666D02*
X0187558Y0145666D01*
X0185593Y0144068D02*
X0179200Y0144068D01*
X0179200Y0142469D02*
X0185000Y0142469D01*
X0185039Y0140870D02*
X0179200Y0140870D01*
X0180775Y0139272D02*
X0185788Y0139272D01*
X0188187Y0137673D02*
X0180775Y0137673D01*
X0180775Y0134476D02*
X0185937Y0134476D01*
X0185100Y0132878D02*
X0179890Y0132878D01*
X0182649Y0131279D02*
X0158600Y0131279D01*
X0158500Y0132878D02*
X0173710Y0132878D01*
X0177853Y0129681D02*
X0158068Y0129681D01*
X0151800Y0121800D02*
X0166800Y0121800D01*
X0170775Y0121688D02*
X0184800Y0121688D01*
X0185057Y0123287D02*
X0170775Y0123287D01*
X0170775Y0120090D02*
X0185133Y0120090D01*
X0186063Y0124885D02*
X0178646Y0124885D01*
X0176800Y0126800D02*
X0191800Y0131800D01*
X0191800Y0124885D02*
X0191800Y0124885D01*
X0191800Y0123287D02*
X0191800Y0123287D01*
X0183441Y0126484D02*
X0201121Y0126484D01*
X0201800Y0116800D02*
X0071800Y0116800D01*
X0067625Y0116893D02*
X0015975Y0116893D01*
X0015975Y0117630D02*
X0015339Y0119165D01*
X0014165Y0120339D01*
X0012630Y0120975D01*
X0010970Y0120975D01*
X0009435Y0120339D01*
X0008261Y0119165D01*
X0007625Y0117630D01*
X0007625Y0115970D01*
X0008261Y0114435D01*
X0009435Y0113261D01*
X0010970Y0112625D01*
X0012630Y0112625D01*
X0014165Y0113261D01*
X0015339Y0114435D01*
X0015975Y0115970D01*
X0015975Y0117630D01*
X0015618Y0118491D02*
X0067982Y0118491D01*
X0069186Y0120090D02*
X0014414Y0120090D01*
X0009186Y0120090D02*
X0006600Y0120090D01*
X0006600Y0121688D02*
X0115000Y0121688D01*
X0115270Y0123287D02*
X0074191Y0123287D01*
X0071800Y0126800D02*
X0176800Y0126800D01*
X0160031Y0110499D02*
X0244559Y0110499D01*
X0245060Y0111000D02*
X0242600Y0108540D01*
X0242600Y0105060D01*
X0245060Y0102600D01*
X0248540Y0102600D01*
X0251000Y0105060D01*
X0251000Y0108540D01*
X0248540Y0111000D01*
X0245060Y0111000D01*
X0244785Y0112097D02*
X0006600Y0112097D01*
X0006600Y0110499D02*
X0009820Y0110499D01*
X0008151Y0108900D02*
X0006600Y0108900D01*
X0006600Y0107302D02*
X0007625Y0107302D01*
X0007736Y0105703D02*
X0006600Y0105703D01*
X0006600Y0104105D02*
X0008591Y0104105D01*
X0015009Y0104105D02*
X0068591Y0104105D01*
X0067736Y0105703D02*
X0015864Y0105703D01*
X0015975Y0107302D02*
X0067625Y0107302D01*
X0068151Y0108900D02*
X0015449Y0108900D01*
X0013780Y0110499D02*
X0069820Y0110499D01*
X0069000Y0113696D02*
X0014600Y0113696D01*
X0015695Y0115294D02*
X0067905Y0115294D01*
X0074414Y0120090D02*
X0115362Y0120090D01*
X0115825Y0111700D02*
X0114024Y0110954D01*
X0112646Y0109576D01*
X0111900Y0107775D01*
X0111900Y0105825D01*
X0112646Y0104024D01*
X0114024Y0102646D01*
X0115825Y0101900D01*
X0117775Y0101900D01*
X0119576Y0102646D01*
X0120954Y0104024D01*
X0121700Y0105825D01*
X0121700Y0107775D01*
X0120954Y0109576D01*
X0119576Y0110954D01*
X0117775Y0111700D01*
X0115825Y0111700D01*
X0113569Y0110499D02*
X0100031Y0110499D01*
X0101234Y0108900D02*
X0112366Y0108900D01*
X0111900Y0107302D02*
X0101700Y0107302D01*
X0101649Y0105703D02*
X0111951Y0105703D01*
X0112613Y0104105D02*
X0100987Y0104105D01*
X0099238Y0102506D02*
X0114362Y0102506D01*
X0119238Y0102506D02*
X0154362Y0102506D01*
X0154024Y0102646D02*
X0155825Y0101900D01*
X0157775Y0101900D01*
X0159576Y0102646D01*
X0160954Y0104024D01*
X0161700Y0105825D01*
X0161700Y0107775D01*
X0160954Y0109576D01*
X0159576Y0110954D01*
X0157775Y0111700D01*
X0155825Y0111700D01*
X0154024Y0110954D01*
X0152646Y0109576D01*
X0151900Y0107775D01*
X0151900Y0105825D01*
X0152646Y0104024D01*
X0154024Y0102646D01*
X0152613Y0104105D02*
X0120987Y0104105D01*
X0121649Y0105703D02*
X0151951Y0105703D01*
X0151900Y0107302D02*
X0121700Y0107302D01*
X0121234Y0108900D02*
X0152366Y0108900D01*
X0153569Y0110499D02*
X0120031Y0110499D01*
X0119283Y0097711D02*
X0188097Y0097711D01*
X0185974Y0094514D02*
X0175775Y0094514D01*
X0175775Y0092915D02*
X0185116Y0092915D01*
X0195503Y0097711D02*
X0218097Y0097711D01*
X0218365Y0097600D02*
X0225235Y0097600D01*
X0226779Y0098239D01*
X0227961Y0099421D01*
X0228600Y0100965D01*
X0228600Y0102635D01*
X0227961Y0104179D01*
X0226779Y0105361D01*
X0225235Y0106000D01*
X0218365Y0106000D01*
X0216821Y0105361D01*
X0215639Y0104179D01*
X0215000Y0102635D01*
X0215000Y0100965D01*
X0215639Y0099421D01*
X0216821Y0098239D01*
X0218365Y0097600D01*
X0218365Y0096000D02*
X0216821Y0095361D01*
X0215639Y0094179D01*
X0215000Y0092635D01*
X0215000Y0090965D01*
X0215639Y0089421D01*
X0216821Y0088239D01*
X0218365Y0087600D01*
X0225235Y0087600D01*
X0226779Y0088239D01*
X0227961Y0089421D01*
X0228600Y0090965D01*
X0228600Y0092635D01*
X0227961Y0094179D01*
X0226779Y0095361D01*
X0225235Y0096000D01*
X0218365Y0096000D01*
X0215974Y0094514D02*
X0197626Y0094514D01*
X0198484Y0092915D02*
X0215116Y0092915D01*
X0215000Y0091317D02*
X0198600Y0091317D01*
X0198084Y0089718D02*
X0215516Y0089718D01*
X0217110Y0088120D02*
X0196490Y0088120D01*
X0197217Y0084923D02*
X0216383Y0084923D01*
X0215285Y0083324D02*
X0198315Y0083324D01*
X0198600Y0081726D02*
X0215000Y0081726D01*
X0215347Y0080127D02*
X0198253Y0080127D01*
X0197068Y0078529D02*
X0216532Y0078529D01*
X0216792Y0075332D02*
X0197025Y0075332D01*
X0197266Y0075156D02*
X0196706Y0075563D01*
X0196089Y0075878D01*
X0195430Y0076092D01*
X0194746Y0076200D01*
X0191800Y0076200D01*
X0191800Y0071800D01*
X0191800Y0071800D01*
X0198800Y0071800D01*
X0198800Y0072146D01*
X0198692Y0072830D01*
X0198478Y0073489D01*
X0198163Y0074106D01*
X0197756Y0074666D01*
X0197266Y0075156D01*
X0198353Y0073733D02*
X0215455Y0073733D01*
X0215000Y0072134D02*
X0198800Y0072134D01*
X0198800Y0071800D02*
X0191800Y0071800D01*
X0191800Y0071800D01*
X0191800Y0067400D01*
X0194746Y0067400D01*
X0195430Y0067508D01*
X0196089Y0067722D01*
X0196706Y0068037D01*
X0197266Y0068444D01*
X0197756Y0068934D01*
X0198163Y0069494D01*
X0198478Y0070111D01*
X0198692Y0070770D01*
X0198800Y0071454D01*
X0198800Y0071800D01*
X0198616Y0070536D02*
X0215178Y0070536D01*
X0216123Y0068937D02*
X0197759Y0068937D01*
X0191800Y0068937D02*
X0191800Y0068937D01*
X0191800Y0067400D02*
X0188854Y0067400D01*
X0188170Y0067508D01*
X0187511Y0067722D01*
X0186894Y0068037D01*
X0186334Y0068444D01*
X0185844Y0068934D01*
X0185437Y0069494D01*
X0185122Y0070111D01*
X0184908Y0070770D01*
X0184800Y0071454D01*
X0184800Y0071800D01*
X0191800Y0071800D01*
X0191800Y0071800D01*
X0191800Y0071800D01*
X0191800Y0076200D01*
X0188854Y0076200D01*
X0188170Y0076092D01*
X0187511Y0075878D01*
X0186894Y0075563D01*
X0186334Y0075156D01*
X0185844Y0074666D01*
X0185437Y0074106D01*
X0185122Y0073489D01*
X0184908Y0072830D01*
X0184800Y0072146D01*
X0184800Y0071800D01*
X0191800Y0071800D01*
X0191800Y0067400D01*
X0191800Y0070536D02*
X0191800Y0070536D01*
X0191800Y0072134D02*
X0191800Y0072134D01*
X0191800Y0073733D02*
X0191800Y0073733D01*
X0191800Y0075332D02*
X0191800Y0075332D01*
X0186575Y0075332D02*
X0179200Y0075332D01*
X0179200Y0073733D02*
X0185247Y0073733D01*
X0184800Y0072134D02*
X0179200Y0072134D01*
X0179200Y0070536D02*
X0179596Y0070536D01*
X0184004Y0070536D02*
X0184984Y0070536D01*
X0185602Y0068937D02*
X0185841Y0068937D01*
X0186000Y0067339D02*
X0232600Y0067339D01*
X0232600Y0065740D02*
X0186000Y0065740D01*
X0185082Y0064142D02*
X0226182Y0064142D01*
X0224149Y0062543D02*
X0179200Y0062543D01*
X0179200Y0060945D02*
X0190005Y0060945D01*
X0188407Y0059346D02*
X0179200Y0059346D01*
X0179200Y0057748D02*
X0187600Y0057748D01*
X0187600Y0056149D02*
X0179128Y0056149D01*
X0177642Y0054551D02*
X0188109Y0054551D01*
X0193595Y0060945D02*
X0220005Y0060945D01*
X0227741Y0059346D02*
X0248407Y0059346D01*
X0236800Y0056149D02*
X0236800Y0056149D01*
X0236800Y0054551D02*
X0236800Y0054551D01*
X0236800Y0052952D02*
X0236800Y0052952D01*
X0236800Y0051354D02*
X0236800Y0051354D01*
X0236800Y0049755D02*
X0236800Y0049755D01*
X0236800Y0048157D02*
X0236800Y0048157D01*
X0240157Y0048157D02*
X0295701Y0048157D01*
X0295701Y0049755D02*
X0241750Y0049755D01*
X0263722Y0062543D02*
X0264834Y0062543D01*
X0270116Y0060945D02*
X0275005Y0060945D01*
X0270364Y0064142D02*
X0295701Y0064142D01*
X0295701Y0065740D02*
X0271200Y0065740D01*
X0271200Y0067339D02*
X0295701Y0067339D01*
X0295701Y0068937D02*
X0270885Y0068937D01*
X0264313Y0070536D02*
X0239004Y0070536D01*
X0234596Y0070536D02*
X0228422Y0070536D01*
X0227477Y0068937D02*
X0232998Y0068937D01*
X0249673Y0073733D02*
X0295701Y0073733D01*
X0295701Y0075332D02*
X0251000Y0075332D01*
X0251000Y0076930D02*
X0295701Y0076930D01*
X0295701Y0078529D02*
X0251000Y0078529D01*
X0249413Y0080127D02*
X0295701Y0080127D01*
X0295701Y0088120D02*
X0226490Y0088120D01*
X0228084Y0089718D02*
X0295701Y0089718D01*
X0295701Y0091317D02*
X0228600Y0091317D01*
X0228484Y0092915D02*
X0295701Y0092915D01*
X0295701Y0094514D02*
X0227626Y0094514D01*
X0225503Y0097711D02*
X0295701Y0097711D01*
X0295701Y0099309D02*
X0227849Y0099309D01*
X0228576Y0100908D02*
X0295701Y0100908D01*
X0295701Y0102506D02*
X0228600Y0102506D01*
X0227991Y0104105D02*
X0243556Y0104105D01*
X0242600Y0105703D02*
X0225952Y0105703D01*
X0217648Y0105703D02*
X0195952Y0105703D01*
X0197991Y0104105D02*
X0215609Y0104105D01*
X0215000Y0102506D02*
X0198600Y0102506D01*
X0198576Y0100908D02*
X0215024Y0100908D01*
X0215751Y0099309D02*
X0197849Y0099309D01*
X0187648Y0105703D02*
X0161649Y0105703D01*
X0161700Y0107302D02*
X0242600Y0107302D01*
X0242961Y0108900D02*
X0161234Y0108900D01*
X0160987Y0104105D02*
X0185609Y0104105D01*
X0185000Y0102506D02*
X0159238Y0102506D01*
X0167825Y0094514D02*
X0122480Y0094514D01*
X0120882Y0096112D02*
X0295701Y0096112D01*
X0295701Y0104105D02*
X0250044Y0104105D01*
X0251000Y0105703D02*
X0295701Y0105703D01*
X0295701Y0107302D02*
X0251000Y0107302D01*
X0250639Y0108900D02*
X0295701Y0108900D01*
X0295701Y0110499D02*
X0249041Y0110499D01*
X0248815Y0112097D02*
X0295701Y0112097D01*
X0295701Y0113696D02*
X0250413Y0113696D01*
X0251550Y0115294D02*
X0295701Y0115294D01*
X0295701Y0116893D02*
X0251550Y0116893D01*
X0251550Y0118491D02*
X0295701Y0118491D01*
X0295701Y0129681D02*
X0228068Y0129681D01*
X0228600Y0131279D02*
X0295701Y0131279D01*
X0295701Y0148863D02*
X0227403Y0148863D01*
X0228392Y0150462D02*
X0295701Y0150462D01*
X0295701Y0152060D02*
X0228600Y0152060D01*
X0228176Y0153659D02*
X0244002Y0153659D01*
X0242600Y0155257D02*
X0226883Y0155257D01*
X0207806Y0163250D02*
X0203744Y0163250D01*
X0197825Y0145666D02*
X0196042Y0145666D01*
X0214200Y0124885D02*
X0216346Y0124885D01*
X0225413Y0137673D02*
X0242050Y0137673D01*
X0242554Y0139272D02*
X0227812Y0139272D01*
X0295701Y0188826D02*
X0145051Y0188826D01*
X0145381Y0190424D02*
X0295701Y0190424D01*
X0145826Y0179235D02*
X0144200Y0179235D01*
X0144200Y0180833D02*
X0145054Y0180833D01*
X0145000Y0182432D02*
X0144200Y0182432D01*
X0144200Y0184030D02*
X0145578Y0184030D01*
X0139400Y0184030D02*
X0128022Y0184030D01*
X0128600Y0182432D02*
X0139400Y0182432D01*
X0139400Y0180833D02*
X0128546Y0180833D01*
X0127774Y0179235D02*
X0139400Y0179235D01*
X0139400Y0185629D02*
X0126132Y0185629D01*
X0127292Y0164848D02*
X0139400Y0164848D01*
X0139400Y0163250D02*
X0128346Y0163250D01*
X0128600Y0161651D02*
X0139400Y0161651D01*
X0140153Y0160053D02*
X0128222Y0160053D01*
X0126994Y0158454D02*
X0146606Y0158454D01*
X0146717Y0155257D02*
X0126883Y0155257D01*
X0128176Y0153659D02*
X0145424Y0153659D01*
X0145000Y0152060D02*
X0128600Y0152060D01*
X0128392Y0150462D02*
X0145208Y0150462D01*
X0146197Y0148863D02*
X0127403Y0148863D01*
X0126042Y0145666D02*
X0147558Y0145666D01*
X0145593Y0144068D02*
X0128007Y0144068D01*
X0128600Y0142469D02*
X0145000Y0142469D01*
X0145039Y0140870D02*
X0128561Y0140870D01*
X0127812Y0139272D02*
X0145788Y0139272D01*
X0148187Y0137673D02*
X0125413Y0137673D01*
X0127663Y0134476D02*
X0145937Y0134476D01*
X0145100Y0132878D02*
X0128500Y0132878D01*
X0128600Y0131279D02*
X0145000Y0131279D01*
X0145532Y0129681D02*
X0128068Y0129681D01*
X0115532Y0129681D02*
X0100621Y0129681D01*
X0101000Y0131279D02*
X0115000Y0131279D01*
X0115100Y0132878D02*
X0101000Y0132878D01*
X0100063Y0134476D02*
X0115937Y0134476D01*
X0115593Y0144068D02*
X0074972Y0144068D01*
X0068777Y0129681D02*
X0014823Y0129681D01*
X0015788Y0128082D02*
X0067812Y0128082D01*
X0067625Y0126484D02*
X0015975Y0126484D01*
X0015526Y0124885D02*
X0068074Y0124885D01*
X0069409Y0123287D02*
X0014191Y0123287D01*
X0009409Y0123287D02*
X0006600Y0123287D01*
X0006600Y0124885D02*
X0008074Y0124885D01*
X0007625Y0126484D02*
X0006600Y0126484D01*
X0006600Y0128082D02*
X0007812Y0128082D01*
X0007982Y0118491D02*
X0006600Y0118491D01*
X0006600Y0116893D02*
X0007625Y0116893D01*
X0007905Y0115294D02*
X0006600Y0115294D01*
X0006600Y0113696D02*
X0009000Y0113696D01*
X0008405Y0099309D02*
X0006600Y0099309D01*
X0006600Y0097711D02*
X0007658Y0097711D01*
X0007625Y0096112D02*
X0006600Y0096112D01*
X0006600Y0094514D02*
X0008228Y0094514D01*
X0006600Y0092915D02*
X0010270Y0092915D01*
X0013330Y0092915D02*
X0070270Y0092915D01*
X0068228Y0094514D02*
X0015372Y0094514D01*
X0015975Y0096112D02*
X0067625Y0096112D01*
X0067658Y0097711D02*
X0015942Y0097711D01*
X0015195Y0099309D02*
X0068405Y0099309D01*
X0068814Y0089718D02*
X0014786Y0089718D01*
X0015772Y0088120D02*
X0067828Y0088120D01*
X0067625Y0086521D02*
X0015975Y0086521D01*
X0015541Y0084923D02*
X0068059Y0084923D01*
X0069372Y0083324D02*
X0014228Y0083324D01*
X0012630Y0080975D02*
X0010970Y0080975D01*
X0009435Y0080339D01*
X0008261Y0079165D01*
X0007625Y0077630D01*
X0007625Y0075970D01*
X0008261Y0074435D01*
X0009435Y0073261D01*
X0010970Y0072625D01*
X0012630Y0072625D01*
X0014165Y0073261D01*
X0015339Y0074435D01*
X0015975Y0075970D01*
X0015975Y0077630D01*
X0015339Y0079165D01*
X0014165Y0080339D01*
X0012630Y0080975D01*
X0014377Y0080127D02*
X0068940Y0080127D01*
X0067771Y0078529D02*
X0015603Y0078529D01*
X0015975Y0076930D02*
X0067425Y0076930D01*
X0067677Y0075332D02*
X0015710Y0075332D01*
X0014637Y0073733D02*
X0068680Y0073733D01*
X0069910Y0070536D02*
X0013690Y0070536D01*
X0015433Y0068937D02*
X0068167Y0068937D01*
X0067625Y0067339D02*
X0015975Y0067339D01*
X0015880Y0065740D02*
X0067720Y0065740D01*
X0068554Y0064142D02*
X0015046Y0064142D01*
X0008963Y0073733D02*
X0006600Y0073733D01*
X0006600Y0075332D02*
X0007889Y0075332D01*
X0007625Y0076930D02*
X0006600Y0076930D01*
X0006600Y0078529D02*
X0007997Y0078529D01*
X0009223Y0080127D02*
X0006600Y0080127D01*
X0006600Y0051354D02*
X0109400Y0051354D01*
X0109400Y0052952D02*
X0099882Y0052952D01*
X0101172Y0054551D02*
X0109400Y0054551D01*
X0109400Y0056149D02*
X0101700Y0056149D01*
X0101700Y0057748D02*
X0109595Y0057748D01*
X0110952Y0059346D02*
X0101049Y0059346D01*
X0099585Y0060945D02*
X0112551Y0060945D01*
X0114149Y0062543D02*
X0099328Y0062543D01*
X0101003Y0064142D02*
X0115748Y0064142D01*
X0115093Y0065740D02*
X0101665Y0065740D01*
X0101700Y0067339D02*
X0115000Y0067339D01*
X0115539Y0068937D02*
X0101218Y0068937D01*
X0099994Y0070536D02*
X0117244Y0070536D01*
X0116327Y0073733D02*
X0074920Y0073733D01*
X0075923Y0075332D02*
X0115262Y0075332D01*
X0115000Y0076930D02*
X0076175Y0076930D01*
X0075829Y0078529D02*
X0115370Y0078529D01*
X0116587Y0080127D02*
X0074660Y0080127D01*
X0071800Y0086800D02*
X0081800Y0096800D01*
X0116800Y0096800D01*
X0128399Y0088120D02*
X0145201Y0088120D01*
X0145000Y0086521D02*
X0128600Y0086521D01*
X0128168Y0084923D02*
X0145432Y0084923D01*
X0146736Y0083324D02*
X0126864Y0083324D01*
X0127013Y0080127D02*
X0146305Y0080127D01*
X0146334Y0080156D02*
X0145844Y0079666D01*
X0145437Y0079106D01*
X0145122Y0078489D01*
X0144908Y0077830D01*
X0144800Y0077146D01*
X0144800Y0076800D01*
X0151800Y0076800D01*
X0151800Y0076800D01*
X0151800Y0081200D01*
X0154746Y0081200D01*
X0155430Y0081092D01*
X0156089Y0080878D01*
X0156706Y0080563D01*
X0157266Y0080156D01*
X0157756Y0079666D01*
X0158163Y0079106D01*
X0158478Y0078489D01*
X0158692Y0077830D01*
X0158800Y0077146D01*
X0158800Y0076800D01*
X0151800Y0076800D01*
X0151800Y0076800D01*
X0151800Y0072400D01*
X0154746Y0072400D01*
X0155430Y0072508D01*
X0156089Y0072722D01*
X0156706Y0073037D01*
X0157266Y0073444D01*
X0157756Y0073934D01*
X0158163Y0074494D01*
X0158478Y0075111D01*
X0158692Y0075770D01*
X0158800Y0076454D01*
X0158800Y0076800D01*
X0151800Y0076800D01*
X0151800Y0076800D01*
X0151800Y0076800D01*
X0151800Y0081200D01*
X0148854Y0081200D01*
X0148170Y0081092D01*
X0147511Y0080878D01*
X0146894Y0080563D01*
X0146334Y0080156D01*
X0145143Y0078529D02*
X0128230Y0078529D01*
X0128600Y0076930D02*
X0144800Y0076930D01*
X0144800Y0076800D02*
X0144800Y0076454D01*
X0144908Y0075770D01*
X0145122Y0075111D01*
X0145437Y0074494D01*
X0145844Y0073934D01*
X0146334Y0073444D01*
X0146894Y0073037D01*
X0147511Y0072722D01*
X0148170Y0072508D01*
X0148854Y0072400D01*
X0151800Y0072400D01*
X0151800Y0076800D01*
X0144800Y0076800D01*
X0145051Y0075332D02*
X0128338Y0075332D01*
X0128261Y0073733D02*
X0146044Y0073733D01*
X0146821Y0070361D02*
X0148365Y0071000D01*
X0155235Y0071000D01*
X0156779Y0070361D01*
X0157961Y0069179D01*
X0158600Y0067635D01*
X0158600Y0065965D01*
X0157961Y0064421D01*
X0156779Y0063239D01*
X0155235Y0062600D01*
X0148365Y0062600D01*
X0146821Y0063239D01*
X0145639Y0064421D01*
X0145000Y0065965D01*
X0145000Y0067635D01*
X0145639Y0069179D01*
X0146821Y0070361D01*
X0147244Y0070536D02*
X0131458Y0070536D01*
X0129860Y0072134D02*
X0174400Y0072134D01*
X0174400Y0070536D02*
X0169004Y0070536D01*
X0168540Y0071000D02*
X0165060Y0071000D01*
X0162600Y0068540D01*
X0162600Y0065060D01*
X0165060Y0062600D01*
X0168540Y0062600D01*
X0171000Y0065060D01*
X0171000Y0068540D01*
X0168540Y0071000D01*
X0170602Y0068937D02*
X0174400Y0068937D01*
X0174400Y0067339D02*
X0171000Y0067339D01*
X0171000Y0065740D02*
X0174400Y0065740D01*
X0174400Y0064142D02*
X0170082Y0064142D01*
X0174400Y0062543D02*
X0134200Y0062543D01*
X0134200Y0060945D02*
X0148232Y0060945D01*
X0145807Y0059346D02*
X0134200Y0059346D01*
X0134200Y0057748D02*
X0145047Y0057748D01*
X0145000Y0056149D02*
X0134200Y0056149D01*
X0134200Y0054551D02*
X0145586Y0054551D01*
X0147514Y0052952D02*
X0134200Y0052952D01*
X0134200Y0064142D02*
X0145918Y0064142D01*
X0145093Y0065740D02*
X0134200Y0065740D01*
X0134174Y0067339D02*
X0145000Y0067339D01*
X0145539Y0068937D02*
X0133057Y0068937D01*
X0133159Y0068835D02*
X0133159Y0068835D01*
X0129400Y0065740D02*
X0128507Y0065740D01*
X0127682Y0064142D02*
X0129400Y0064142D01*
X0115586Y0054551D02*
X0114200Y0054551D01*
X0114200Y0052952D02*
X0117514Y0052952D01*
X0115000Y0056149D02*
X0114543Y0056149D01*
X0133558Y0040164D02*
X0146625Y0040164D01*
X0145385Y0038566D02*
X0131960Y0038566D01*
X0130361Y0036967D02*
X0145000Y0036967D01*
X0145247Y0035369D02*
X0128763Y0035369D01*
X0127310Y0033770D02*
X0146290Y0033770D01*
X0147334Y0030573D02*
X0126266Y0030573D01*
X0128045Y0028975D02*
X0145555Y0028975D01*
X0145000Y0027376D02*
X0128600Y0027376D01*
X0128523Y0025778D02*
X0145077Y0025778D01*
X0145881Y0024179D02*
X0127719Y0024179D01*
X0117334Y0030573D02*
X0116421Y0030573D01*
X0118648Y0014588D02*
X0101397Y0014588D01*
X0100202Y0012990D02*
X0117600Y0012990D01*
X0097100Y0012990D02*
X0096500Y0012990D01*
X0096500Y0014588D02*
X0097100Y0014588D01*
X0097100Y0016187D02*
X0096500Y0016187D01*
X0096500Y0017785D02*
X0097100Y0017785D01*
X0097100Y0019384D02*
X0096500Y0019384D01*
X0096500Y0020982D02*
X0097100Y0020982D01*
X0151800Y0056800D02*
X0176800Y0056800D01*
X0176800Y0081800D01*
X0172825Y0080127D02*
X0157295Y0080127D01*
X0158457Y0078529D02*
X0173059Y0078529D01*
X0174400Y0076930D02*
X0158800Y0076930D01*
X0158549Y0075332D02*
X0174400Y0075332D01*
X0174400Y0073733D02*
X0157556Y0073733D01*
X0151800Y0073733D02*
X0151800Y0073733D01*
X0151800Y0075332D02*
X0151800Y0075332D01*
X0151800Y0076930D02*
X0151800Y0076930D01*
X0151800Y0078529D02*
X0151800Y0078529D01*
X0151800Y0080127D02*
X0151800Y0080127D01*
X0156356Y0070536D02*
X0164596Y0070536D01*
X0162998Y0068937D02*
X0158061Y0068937D01*
X0158600Y0067339D02*
X0162600Y0067339D01*
X0162600Y0065740D02*
X0158507Y0065740D01*
X0157682Y0064142D02*
X0163518Y0064142D01*
X0157793Y0059346D02*
X0174400Y0059346D01*
X0174400Y0060945D02*
X0155368Y0060945D01*
X0156266Y0030573D02*
X0185162Y0030573D01*
X0194831Y0016187D02*
X0232600Y0016187D01*
X0232600Y0015060D02*
X0235060Y0012600D01*
X0238540Y0012600D01*
X0241000Y0015060D01*
X0241000Y0018540D01*
X0238540Y0021000D01*
X0235060Y0021000D01*
X0232600Y0018540D01*
X0232600Y0015060D01*
X0233072Y0014588D02*
X0227552Y0014588D01*
X0228453Y0012990D02*
X0234671Y0012990D01*
X0238929Y0012990D02*
X0264388Y0012990D01*
X0264977Y0012400D02*
X0262400Y0014977D01*
X0262400Y0016800D01*
X0266800Y0016800D01*
X0271200Y0016800D01*
X0271200Y0018623D01*
X0268623Y0021200D01*
X0266800Y0021200D01*
X0266800Y0016800D01*
X0266800Y0016800D01*
X0266800Y0016800D01*
X0271200Y0016800D01*
X0271200Y0014977D01*
X0268623Y0012400D01*
X0266800Y0012400D01*
X0266800Y0016800D01*
X0266800Y0016800D01*
X0266800Y0016800D01*
X0266800Y0021200D01*
X0264977Y0021200D01*
X0262400Y0018623D01*
X0262400Y0016800D01*
X0266800Y0016800D01*
X0266800Y0012400D01*
X0264977Y0012400D01*
X0266800Y0012990D02*
X0266800Y0012990D01*
X0266800Y0014588D02*
X0266800Y0014588D01*
X0266800Y0016187D02*
X0266800Y0016187D01*
X0266800Y0017785D02*
X0266800Y0017785D01*
X0266800Y0019384D02*
X0266800Y0019384D01*
X0266800Y0020982D02*
X0266800Y0020982D01*
X0268840Y0020982D02*
X0295701Y0020982D01*
X0295701Y0019384D02*
X0270439Y0019384D01*
X0271200Y0017785D02*
X0295701Y0017785D01*
X0295701Y0016187D02*
X0271200Y0016187D01*
X0270811Y0014588D02*
X0295701Y0014588D01*
X0295701Y0012990D02*
X0269212Y0012990D01*
X0262789Y0014588D02*
X0240528Y0014588D01*
X0241000Y0016187D02*
X0262400Y0016187D01*
X0262400Y0017785D02*
X0241000Y0017785D01*
X0240156Y0019384D02*
X0263161Y0019384D01*
X0264760Y0020982D02*
X0238558Y0020982D01*
X0235042Y0020982D02*
X0228600Y0020982D01*
X0227923Y0019384D02*
X0233444Y0019384D01*
X0232600Y0017785D02*
X0225682Y0017785D01*
X0228600Y0011391D02*
X0295701Y0011391D01*
X0295701Y0009793D02*
X0228115Y0009793D01*
X0226670Y0008194D02*
X0295701Y0008194D01*
X0273481Y0024179D02*
X0255119Y0024179D01*
X0256000Y0025778D02*
X0259428Y0025778D01*
X0257830Y0027376D02*
X0256000Y0027376D01*
X0256231Y0028975D02*
X0255565Y0028975D01*
X0256800Y0031800D02*
X0261800Y0026800D01*
X0276800Y0026800D01*
X0008851Y0049755D02*
X0006600Y0049755D01*
X0006600Y0048157D02*
X0007843Y0048157D01*
X0007625Y0046558D02*
X0006600Y0046558D01*
X0006600Y0044960D02*
X0008043Y0044960D01*
X0006623Y0043361D02*
X0006600Y0043361D01*
D18*
X0141800Y0191800D03*
M02*
